<?xml version="1.0" encoding="UTF-8"?>
<svg id="Layer_1" data-name="Layer 1" xmlns="http://www.w3.org/2000/svg" viewBox="0 0 863.21 21.55">
  <defs>
    <style>
      .cls-1 {
        fill: none;
      }

      .cls-2 {
        fill: #d33763;
      }
    </style>
  </defs>
  <g>
    <path class="cls-1" d="m10.46,7.07c-1.7,0-3.07,1.35-3.08,3.02,0,1.67,1.37,3.03,3.06,3.04,1.7,0,3.08-1.35,3.08-3.02,0-1.67-1.37-3.03-3.06-3.04Z"/>
    <path class="cls-1" d="m63.94,11.16c-.13,1.31-1.27,2.34-2.68,2.34-1.4,0-2.54-1.04-2.66-2.35l-20.07-.05c-.88.21-1.84.53-2.76,1.03-2.9,1.57-4.28,2.2-8.34,2.46-4.06.25-5.87,4.73-5.87,4.73,0,0-1.47-3.01.86-4.8,1.47-1.13,2.03-2.36,2.25-3.12.49.97,1.7,1.66,3.13,1.66,1.87,0,3.38-1.16,3.38-2.61,0-1.45-1.5-2.63-3.37-2.63-1.52,0-2.8.78-3.22,1.85-.26-.76-.85-1.85-2.15-2.86-2.32-1.8-.83-4.8-.83-4.8,0,0,1.78,4.49,5.84,4.76,4.06.27,5.43.91,8.33,2.5.61.33,1.23.58,1.84.78l21.11.06c.36-1.02,1.36-1.77,2.55-1.76,1.19,0,2.19.75,2.54,1.78h6.02s0-10.11,0-10.11H0v21.55h69.85v-10.38h-5.9Zm-52.51,3.51c-2.53,0-4.57-1.99-4.56-4.44,0-2.44,2.06-4.42,4.58-4.41,2.52,0,4.57,1.99,4.56,4.44,0,2.45-2.06,4.42-4.58,4.41Z"/>
    <path class="cls-2" d="m61.28,8.34c-1.19,0-2.19.74-2.55,1.76l-21.11-.06c-.61-.2-1.23-.45-1.84-.78-2.9-1.59-4.27-2.23-8.33-2.5-4.06-.27-5.84-4.76-5.84-4.76,0,0-1.48,3,.83,4.8,1.3,1.01,1.88,2.1,2.15,2.86.42-1.08,1.7-1.86,3.22-1.85,1.87,0,3.37,1.18,3.37,2.63,0,1.45-1.52,2.61-3.38,2.61-1.42,0-2.63-.69-3.13-1.66-.22.76-.78,1.99-2.25,3.12-2.32,1.79-.86,4.8-.86,4.8,0,0,1.8-4.48,5.87-4.73,4.06-.25,5.44-.88,8.34-2.46.92-.5,1.88-.82,2.76-1.03l20.07.05c.12,1.31,1.26,2.35,2.66,2.35,1.4,0,2.55-1.03,2.68-2.34h5.9s0-1.04,0-1.04h-6.02c-.35-1.04-1.35-1.78-2.54-1.78Z"/>
    <path class="cls-2" d="m11.45,5.81c-2.53,0-4.58,1.97-4.58,4.41,0,2.45,2.04,4.43,4.56,4.44,2.52,0,4.58-1.97,4.58-4.41,0-2.44-2.04-4.43-4.56-4.44Zm-1.01,7.32c-1.7,0-3.07-1.36-3.06-3.04,0-1.67,1.38-3.03,3.08-3.02,1.7,0,3.07,1.36,3.06,3.04,0,1.67-1.38,3.03-3.08,3.02Z"/>
  </g>
  <g>
    <path class="cls-1" d="m859.62,7.07c1.7,0,3.07,1.35,3.08,3.02,0,1.67-1.37,3.03-3.06,3.04-1.7,0-3.08-1.35-3.08-3.02,0-1.67,1.37-3.03,3.06-3.04Z"/>
    <path class="cls-2" d="m808.79,8.34c1.19,0,2.19.74,2.55,1.76l21.11-.06c.61-.2,1.23-.45,1.84-.78,2.9-1.59,4.27-2.23,8.33-2.5,4.06-.27,5.84-4.76,5.84-4.76,0,0,1.48,3-.83,4.8-1.3,1.01-1.88,2.1-2.15,2.86-.42-1.08-1.7-1.86-3.22-1.85-1.87,0-3.37,1.18-3.37,2.63,0,1.45,1.52,2.61,3.38,2.61,1.42,0,2.63-.69,3.13-1.66.22.76.78,1.99,2.25,3.12,2.32,1.79.86,4.8.86,4.8,0,0-1.8-4.48-5.87-4.73-4.06-.25-5.44-.88-8.34-2.46-.92-.5-1.88-.82-2.76-1.03l-20.07.05c-.12,1.31-1.26,2.35-2.66,2.35-1.4,0-2.55-1.03-2.68-2.34H63.94s0-1.04,0-1.04h742.31c.35-1.04,1.35-1.78,2.54-1.78Z"/>
    <path class="cls-2" d="m854.06,10.25c0,2.45,2.06,4.42,4.58,4.41,2.53,0,4.57-1.99,4.56-4.44,0-2.44-2.06-4.42-4.58-4.41-2.52,0-4.57,1.99-4.56,4.44Zm2.49-.14c0-1.67,1.37-3.03,3.06-3.04,1.7,0,3.07,1.35,3.08,3.02,0,1.67-1.37,3.03-3.06,3.04-1.7,0-3.08-1.35-3.08-3.02Z"/>
  </g>
</svg>