<?xml version="1.0" encoding="UTF-8"?>
<svg id="Layer_1" data-name="Layer 1" xmlns="http://www.w3.org/2000/svg" viewBox="0 0 235.36 54.53">
  <defs>
    <style>
      .cls-1 {
        fill: #dad5cb;
      }
    </style>
  </defs>
  <g>
    <path class="cls-1" d="m20.93,48.28c-1.42,0-2.63-.69-3.13-1.66-.22.76-.78,1.99-2.25,3.12-2.32,1.79-.86,4.8-.86,4.8,0,0,1.8-4.48,5.87-4.73,4.06-.25,5.44-.88,8.34-2.46.92-.5,1.88-.82,2.76-1.03l20.07.05c.12,1.31,1.26,2.35,2.66,2.35,1.4,0,2.55-1.03,2.68-2.34l140.93.19c5.78.02,30.04-4.45,34.18-25.36l.26-1.3-1.07.77s-2.21,1.56-4.98,1.1c-2.07-.34-3.97-1.69-5.64-4.02l-.5-.7-.39.77c-.09.17-8.67,16.67-28.09,16.79-20.76.12-24.41-14.35-24.93-17.25-.26-1.45-.86-6.52,2.39-10.72,2.53-3.25,6.72-5.12,12.47-5.55,6.64-.5,12.04,1.94,14.8,6.67,2.07,3.54,2.25,7.92.43,10.63-1.68,2.51-4.32,4.05-7.45,4.34-3.08.28-6.14-.72-7.97-2.6-2.12-2.19-1.56-4.63-1.53-4.73,0-.02,0-.05,0-.07.25-.26.57-.48.99-.54,1.24-.19.99,2.41,3.29,2.22,2.3-.19,3.67-3.82.71-5.39-2.96-1.57-6,.7-6.12,3.47-.02.53-.02.9,0,1.16,0,1.13.29,2.94,1.91,4.61,2.05,2.11,5.42,3.22,8.81,2.91,3.45-.31,6.37-2.02,8.23-4.79,2.06-3.08,1.9-7.8-.4-11.74-2.97-5.09-8.72-7.71-15.78-7.19-6.06.45-10.5,2.45-13.22,5.95-3.52,4.53-2.88,9.98-2.6,11.54.39,2.19,2.47,10.61,11.57,15.16-2.12-.57-4.82-1.52-7.95-3.14-2.55-1.31-5.72-3.37-9.07-5.55-7.61-4.95-16.23-10.56-23.72-11.79-10.09-1.66-16.96,1.04-19.37,7.58-1.21,3.3-.7,7.07,1.31,9.59,1.56,1.97,3.75,2.89,6.17,2.6,2.29-.28,3.97-1.1,5.01-2.44.43-.56.68-1.13.84-1.66.18-.5.32-1.16.38-2.03.19-3.04-3.51-3.68-5.03-2.62-1.52,1.06-1.28,3.61.5,4.37,1.79.76,2.61-1.06,2.61-1.06,0,0,.44-.03.45,1.32-.13.35-.31.7-.58,1.05-.85,1.11-2.3,1.8-4.31,2.04-2.04.25-3.9-.53-5.22-2.21-1.78-2.25-2.23-5.62-1.15-8.59,2.24-6.11,8.54-8.5,18.22-6.91,7.26,1.19,15.79,6.74,23.31,11.64,3.38,2.2,6.56,4.27,9.16,5.61,7.74,3.98,12.83,4.1,13.54,4.09,2.66.69,5.72,1.09,9.28,1.07,17.81-.11,26.77-13.53,28.63-16.68,1.72,2.17,3.67,3.49,5.83,3.84,1.94.32,3.59-.19,4.62-.66-4.67,19.2-27.35,23.39-32.85,23.37l-141.05-.19c-.35-1.03-1.35-1.77-2.54-1.78-1.19,0-2.19.74-2.55,1.76l-21.11-.06c-.61-.2-1.23-.45-1.84-.78-2.9-1.59-4.27-2.23-8.33-2.5-4.06-.27-5.84-4.76-5.84-4.76,0,0-1.48,3,.83,4.8,1.3,1.01,1.88,2.1,2.15,2.86.42-1.08,1.7-1.86,3.22-1.85,1.87,0,3.37,1.18,3.37,2.63,0,1.45-1.52,2.61-3.38,2.61"/>
    <path class="cls-1" d="m223.49,8.97c0,3.39,2.64,6.14,5.92,6.15,3.28,0,5.94-2.73,5.95-6.12,0-3.39-2.64-6.14-5.92-6.15-3.28,0-5.94,2.73-5.95,6.11m1.69,1.34c0-2.28,1.83-4.12,4.07-4.11,2.24,0,4.06,1.86,4.05,4.13,0,2.27-1.83,4.11-4.07,4.11-2.24,0-4.06-1.85-4.05-4.13"/>
  </g>
  <path class="cls-1" d="m4.56,49.89c2.52,0,4.58-1.97,4.58-4.41,0-2.44-2.04-4.43-4.56-4.44C2.06,41.03,0,43.01,0,45.45c0,2.45,2.04,4.43,4.56,4.44m-.97-7.59c1.7,0,3.07,1.36,3.06,3.04,0,1.67-1.38,3.03-3.08,3.02-1.7,0-3.07-1.36-3.06-3.04,0-1.67,1.38-3.03,3.08-3.02"/>
</svg>