<svg id="Layer_1" data-name="Layer 1" xmlns="http://www.w3.org/2000/svg" viewBox="0 0 869.08 1719.63"><defs><style>.cls-1{fill:#efe9df;stroke:#efe9df;stroke-miterlimit:10;stroke-width:0.74px;}</style></defs><title>piezas</title><path class="cls-1" d="M824.78,13.79v.77H38.64l0,.14-.05.14-.06.13-.07.12-.09.11-.09.11-.1.1-.1.1-.12.08-.12.07-.13.07-.13,0-.14.05-.15,0-.14,0h-.3l-.14,0-.14,0-.14,0-.13,0-.12-.06L36,15.61l-.11-.08-.11-.09-.09-.09-.1-.1-.08-.11L35.46,15l-.07-.12,0-.13-.05-.13H14.76V35l.13,0,.13.05.12.07.12.07.11.08.1.09.1.1.09.11.08.11.07.11.06.13.05.13,0,.13,0,.14,0,.14v.29l0,.14,0,.14,0,.13-.05.13-.07.13-.07.11-.08.12-.08.1-.1.1-.1.09-.11.08-.12.07-.12.07-.13,0-.14.05v5.91H14V38.35H13.9l-.08,0-.14,0-.14-.05-.14-.07-.12-.08L13.16,38l-.11-.1-.11-.11-.09-.12-.08-.12-.07-.13-.06-.14-.05-.15,0-.07v-.62l0-.07,0-.15.05-.14,0-.14.07-.13.08-.12.09-.12.1-.11.11-.1.12-.09.12-.08.13-.07.14-.06.14,0,.15,0V14.64H8.1V29a2.44,2.44,0,0,1,0,.27,2.28,2.28,0,0,1,0,.27l0,.26,0,.25,0,.24,0,.23-.07.22L7.76,31l-.07.2-.09.2-.09.18-.11.18-.11.17-.12.16-.12.15-.14.14-.14.13-.16.12-.16.12-.16.1-.18.1L5.93,33l-.2.08-.2.07-.21.06-.21,0-.23,0-.23,0-.24,0H3.54l-.18,0-.18,0-.17,0-.17,0-.16-.06-.16-.06-.16-.07L2.21,33l-.15-.09-.15-.09-.13-.1-.14-.11-.13-.11-.12-.12-.11-.12-.11-.13L1.06,32,1,31.83l-.09-.14-.08-.15-.08-.16-.07-.16-.06-.16-.06-.17,0-.17,0-.17,0-.18,0-.18,0-.19v-.37l0-.18,0-.17,0-.18,0-.17,0-.17.06-.17.06-.16.07-.16.08-.15L.87,28,1,27.83l.1-.14.11-.13.11-.12.12-.12.13-.11.13-.11L1.8,27l.14-.08.15-.08.16-.08.15-.06.17-.06.16-.05.17,0,.18,0,.18,0,.18,0H4l.23,0,.21,0,.21,0,.2.06.2.07.18.09.17.1.08.05.08.06.08,0,.07.07.07.06.07.07.06.06L6,27.4l.06.07,0,.08,0,.07.05.08,0,.09,0,.08,0,.09,0,.09,0,.09,0,.09,0,.12,0,.12v.24h0V29l0,.1,0,.11,0,.12s0,.09-.05.13l0,.13-.07.14-.08.13L6,30,5.92,30l0,.06-.06.06-.07.06-.07.05-.07.06-.08.05-.08.05-.09,0-.09,0-.1,0-.1,0-.11,0-.11,0-.12,0H4.14l-.13,0-.12,0-.12,0-.1-.05-.09-.06-.08-.06-.08-.08-.06-.07-.06-.08,0-.09,0-.08,0-.09,0-.09v-.37l0-.09,0-.09,0-.08,0-.08,0-.08.06-.07.06-.06.07-.06.07,0,.08,0,.05,0h0l0,0h.49l.06,0,.05,0,0,0,0,0,0,0,0,0,0,0,0,0,0,0,0,0,0,.05,0,0,0,.09,0,.1,0,.1v.42H5l.06,0,.07,0,.06-.06.07-.06.07-.07.06-.08.06-.09,0-.1,0-.1,0-.12,0-.08v-.39l0-.08v-.08l0-.09,0-.1,0-.09L5.43,28l-.07-.09-.07-.09-.08-.09-.1-.08L5,27.61l-.12-.07-.12-.07-.14,0-.15-.05-.16,0-.17,0H3.38l-.14,0-.14,0-.13,0-.12,0-.13,0-.12.05-.11.05-.12.06-.11.07-.1.07-.1.08L2,27.91,1.88,28l-.09.09-.08.1-.07.11-.07.11-.07.11-.05.12-.06.11,0,.13,0,.13,0,.12,0,.14,0,.13,0,.14v.57l0,.14,0,.14,0,.13,0,.14,0,.13,0,.13.05.12.06.12.06.12.07.11.08.11.07.1.09.1.09.1.09.09.1.08.1.08.11.08.11.07.11.06.12.06.12.06.12,0,.13,0,.13,0,.13,0,.14,0H4.2l.3,0h.15l.15,0,.15,0,.14,0,.15,0,.14,0,.14-.05.14-.06.14-.07.13-.07L6.06,32,6.18,32l.12-.11.11-.12.11-.12.1-.14.1-.15.09-.16A1.42,1.42,0,0,0,6.89,31L7,30.79c0-.07,0-.14.07-.2l.06-.22c0-.08,0-.15.05-.23s0-.16,0-.25l0-.26,0-.27c0-.1,0-.2,0-.3s0-.2,0-.31V14.64H.78V7.22h6.5V.78h7.48V7.22H29.3l.3,0,.28,0,.26,0,.25,0,.23,0L30.84,7l.2-.07.19-.08.18-.08.16-.09.15-.1.14-.1L32,6.36l.12-.11.11-.12L32.3,6l.09-.13.08-.13.07-.13.06-.14,0-.14,0-.14,0-.15,0-.14,0-.15,0-.15,0-.14,0-.3V3.45l0-.13,0-.13,0-.13,0-.13,0-.12,0-.12-.06-.12-.07-.11-.07-.11-.07-.11-.09-.1-.08-.09L32.06,2,32,1.87l-.1-.09-.11-.08-.11-.07-.11-.07-.12-.06-.12-.06-.12-.05-.13,0-.13,0-.14,0-.13,0-.14,0h-.86l-.13,0-.14,0-.13,0-.12,0-.13,0-.12.06-.12.05-.11.07-.11.07-.11.07-.09.08-.1.08L28.14,2l-.08.1-.08.1-.07.1-.07.11-.06.11-.06.11,0,.12-.05.12,0,.13,0,.13,0,.13,0,.14v.58a1.11,1.11,0,0,0,0,.19l0,.17,0,.16a.88.88,0,0,1,.05.15l.06.13.06.13.07.11.08.1.08.1.09.08.09.07.09.07.1.05.09,0,.1,0,.09,0,.08,0h.48l.08,0,.12,0,.1,0,.1,0,.09-.06.08-.07.08-.06.06-.07L30,5.1,30,5,30,5V4.83h0v0h-.52l-.1,0-.09,0-.05,0-.05,0,0,0-.05,0,0,0,0,0,0,0,0,0,0,0,0,0,0,0V4.26l0-.06V3.91l0-.09V3.73l0,0,0,0,0-.08.05-.08.06-.06.06-.07.07,0,.08-.05.08,0,.08,0,.09,0,.09,0h.28l.09,0,.09,0,.09,0,.09,0,.09,0,.08.05.07.07.08.07.06.08.06.1.05.1.05.11,0,.12,0,.13v.14s0,.1,0,.15,0,.11,0,.16v.12l0,.12,0,.12,0,.1,0,.1,0,.1,0,.09,0,.09-.05.08-.05.08-.06.07-.05.07-.06.06-.07.06-.06.06-.06,0L30.08,6,30,6.1l-.14.07-.13.06-.13,0-.12,0-.12,0-.1,0-.07,0h-.43l-.13,0-.12,0-.09,0-.09,0-.09,0-.09,0-.09,0-.08,0-.08,0-.08,0-.08,0-.07-.06-.07-.06-.07-.06-.07-.07-.06-.07-.06-.07-.06-.07-.06-.08-.05-.08L27,5.2,26.93,5l-.07-.19-.07-.2-.05-.21,0-.22,0-.22V3.42l0-.19,0-.17,0-.18,0-.17.05-.16.05-.16L27,2.23l.07-.15.09-.15.09-.14.09-.14.11-.13.11-.12.12-.12.13-.12.13-.1.14-.1L28.2.87l.15-.09.16-.07.15-.07.17-.06L29,.52l.17-.05.18,0,.18,0,.17,0,.19,0h.37l.18,0,.19,0,.18,0,.17,0,.18,0,.17.06.16.06.16.07.16.08L32,.87,32.1,1l.14.1.13.1.13.11.13.11.12.13.11.12.11.13.1.14.09.14.09.15.08.15.07.16.06.16.06.16,0,.17,0,.17,0,.17,0,.18v.37c0,.08,0,.17,0,.25s0,.17,0,.25l0,.24,0,.23,0,.22-.05.21-.06.21-.07.2-.08.19-.08.18-.1.18-.1.17-.12.15-.12.15-.14.15L32.5,7l-.15.13-.16.12L32,7.35l-.18.1-.19.09-.19.09-.21.07L31,7.77l-.23.07-.23,0-.24,0-.26,0-.25,0-.27,0H14.76v5.79H35.25l0-.15,0-.14.06-.14.07-.13.08-.12.09-.11.1-.11.11-.1.12-.09.12-.08.13-.07.14-.05.15,0,.14,0,.08,0h.39l.15,0,.15,0,.14,0,.13.06.13.06.13.08.11.09.11.09.1.11.09.11.08.12.08.13.06.13,0,.14,0,.14ZM7.28,8H1.6v5.79H7.28Zm.82-.82h5.84V1.59H8.1ZM13.94,8H8.1v5.79h5.84Zm.33,27.7h-.19l-.08,0-.09,0-.08,0-.07,0-.07.05-.07.06-.06.06-.05.07,0,.08,0,.08,0,.08,0,.09v.37l0,.08,0,.09,0,.08,0,.07.05.07.06.07.07.06.07,0,.07,0,.08,0,.09,0,.08,0h.37l.09,0,.09,0,.08,0,.07,0,.07,0,.07-.06.06-.07,0-.07.05-.07,0-.08,0-.09,0-.08v-.37l0-.09,0-.08,0-.08L15,36.14l0-.07L14.92,36,14.85,36l-.07-.05-.07,0-.08,0-.09,0-.09,0h-.18Zm23.6-21.58V14l0-.08,0-.09,0-.08,0-.07-.06-.07-.06-.07-.06-.06-.07,0-.08,0-.08,0-.08,0-.09,0h-.37l-.09,0-.08,0-.08,0-.08,0-.07,0-.06.06-.06.07-.06.07,0,.07,0,.08,0,.09,0,.08,0,.09v.19l0,.09,0,.09,0,.08,0,.08,0,.07.06.08.06.06.06.06.07.05.08.05.08,0,.08,0,.09,0h.37l.09,0,.08,0,.08,0,.08-.05.07-.05.06-.06.06-.06.06-.08,0-.07,0-.08,0-.08,0-.09v-.18Z"/><path class="cls-1" d="M830.43,13.79l0-.14,0-.14.06-.13.07-.13.09-.12.09-.11.1-.11.11-.09.11-.09.13-.08.13-.06.13-.06.14,0,.15,0,.15,0h.39l.07,0,.15,0,.15,0,.13.05.14.07.12.08.12.09.11.1.1.11.09.11.08.12.07.13.06.14,0,.14,0,.15h20.49V8h-14.8l-.27,0L839,8l-.25,0-.24,0-.23,0L838,7.77l-.21-.07-.21-.07-.19-.09-.19-.09-.18-.1-.17-.11-.16-.12L836.58,7l-.14-.13-.14-.15-.12-.15-.12-.15-.1-.17-.1-.18-.09-.18-.07-.19-.07-.2-.06-.21-.05-.21,0-.22,0-.23,0-.24c0-.08,0-.17,0-.25a2.09,2.09,0,0,1,0-.25V3.51l0-.18,0-.17,0-.17,0-.17.06-.16.06-.16.07-.16.08-.15.09-.15L836,1.9l.1-.14.11-.13.11-.12.12-.13.12-.11.14-.11.13-.1L837,1l.15-.09.15-.08.16-.08.16-.07.16-.06.17-.06.18,0,.17,0,.18,0,.19,0,.18,0h.37l.18,0,.18,0,.18,0,.17,0,.17.05.17.06.17.06.15.07.16.07.15.09L841,1l.14.1.13.1.13.12.12.12.11.12.11.13.09.14.09.14.08.15.08.15.06.16.06.16,0,.16,0,.17,0,.18,0,.17,0,.19V4l0,.22,0,.22,0,.21-.07.2-.07.19-.09.18-.1.17-.05.08-.06.08-.06.07-.06.07-.06.07-.07.07-.07.06-.07.06-.08.06-.07,0-.08,0-.08,0-.09,0-.08,0-.09,0-.09,0-.09,0-.09,0-.13,0-.12,0h-.43l-.07,0-.11,0-.11,0-.12,0-.13,0-.13-.06-.14-.07L839,6l-.13-.09-.06,0-.07-.06-.06-.06-.06-.06-.05-.07-.06-.07,0-.08-.05-.08,0-.09,0-.09,0-.1,0-.1,0-.1,0-.12,0-.12V4.56a.86.86,0,0,1,0-.16.76.76,0,0,1,0-.15V4.11l0-.13,0-.12,0-.11.05-.1.06-.1.06-.08.08-.07.07-.07.08-.05.09,0,.09,0,.09,0,.09,0,.09,0h.28l.09,0,.09,0,.08,0,.08,0,.08.05.07,0,.06.07.06.06.05.08,0,.08,0,0,0,0v.09l0,.09V4.2l0,.06v.06l0,0,0,0,0,0,0,0,0,0,0,0,0,0,0,0,0,0-.05,0,0,0-.09,0-.1,0h-.52v0h0V5l0,0a.33.33,0,0,1,0,.06l0,.06,0,.06.06.07.08.06.08.07.09.06.1,0,.1,0,.12,0,.08,0h.48l.08,0,.09,0,.1,0,.09,0,.1-.05.09-.07.09-.07.09-.08.08-.1.08-.1.07-.11.06-.13.06-.13a.88.88,0,0,1,0-.15l0-.16,0-.17c0-.06,0-.12,0-.19V3.35l0-.14,0-.13,0-.13,0-.13-.05-.12,0-.12-.06-.11-.06-.11-.07-.11-.07-.1-.08-.1-.08-.1-.09-.09-.1-.08-.1-.08-.1-.07-.11-.07-.11-.07-.12-.05-.12-.06-.13,0-.12,0-.13,0-.14,0-.13,0h-.86l-.14,0-.14,0-.13,0-.13,0-.13,0-.12.05-.12.06-.12.06-.12.07-.1.07-.11.08-.1.09L837,2l-.09.1-.08.09-.09.1-.07.11-.07.11-.07.11-.06.12,0,.12-.05.12,0,.13,0,.13,0,.13,0,.13v.72l0,.3,0,.14,0,.15,0,.15,0,.14,0,.15,0,.14.05.14.06.14.07.13.08.13.09.13.09.12.11.12.11.11.13.11.14.1.15.1.16.09.18.08.19.08.2.07.22.06.23,0,.25,0,.26,0,.28,0,.3,0h14.54V.78h7.48V7.22h6.5v7.42h-6.5V28.75c0,.11,0,.21,0,.31s0,.2,0,.3l0,.27,0,.26c0,.09,0,.17,0,.25s0,.15.05.23l.06.22c0,.06.05.13.07.2a377250394179,377250394179,0,0,1,.16.36l.09.16.1.15.1.14.11.12.11.12.12.11L863,32l.13.09.13.07.14.07.14.06.14.05.14,0,.15,0,.14,0,.15,0,.15,0h.15l.3,0h.72l.14,0,.13,0,.13,0,.13,0,.12,0,.12-.06.12-.06.11-.06.11-.07.11-.08.1-.08.1-.08.09-.09.09-.1.08-.1.08-.1.08-.11.07-.11.06-.12.06-.12,0-.12.05-.13,0-.13,0-.14,0-.13,0-.14,0-.14v-.57l0-.14,0-.13,0-.14,0-.12,0-.13,0-.13-.06-.11,0-.12-.07-.11-.07-.11-.07-.11-.08-.1L867.2,28l-.09-.09-.09-.08-.1-.08-.11-.07-.1-.07-.12-.06-.11-.05-.12-.05-.13,0-.12,0-.13,0-.14,0-.14,0h-.77l-.17,0-.16,0-.15.05-.14,0-.12.07-.12.07-.1.07-.1.08-.08.09-.07.09-.07.09,0,.1-.05.09,0,.1,0,.09v.08l0,.08V29l0,.12.05.1,0,.1.06.09.06.08.07.07.07.06.06.06.06,0,.06,0h.18v-.42l0-.1,0-.1,0-.09,0,0,0-.05,0,0,0,0,0,0,0,0,0,0,0,0,0,0,0,0,.05,0,.06,0h.48l.05,0h0l0,0,.08,0,.07,0,.07.06.06.06.06.07,0,.08,0,.08,0,.08,0,.09,0,.09v.37l0,.09,0,.09,0,.08,0,.09-.06.08-.06.07-.08.08-.08.06-.09.06-.1.05-.12,0-.12,0-.13,0h-.58l-.12,0-.11,0-.11,0-.1,0-.1,0-.09,0-.09,0-.08-.05-.08-.05-.07-.06-.07-.05-.07-.06-.06-.06-.05-.06L863.1,30l-.09-.13-.08-.13-.07-.14-.05-.13s0-.09,0-.13l0-.12,0-.11,0-.1v-.27h0v-.24l0-.12,0-.12,0-.09,0-.09,0-.09,0-.09,0-.08,0-.09.05-.08,0-.07,0-.08.06-.07.06-.08.06-.06.07-.07.07-.06.07-.07.08,0,.08-.06.08-.05.17-.1.18-.09.2-.07.2-.06.21,0,.21,0,.23,0h.57l.18,0,.18,0,.18,0,.17,0,.16.05.17.06.15.06.16.08.14.08.15.08.14.1.13.11.13.11.12.12.11.12.11.13.09.14.1.14.08.15.08.15.07.16.06.16.06.17,0,.17,0,.17,0,.18,0,.17,0,.18V30l0,.19,0,.18,0,.18,0,.17,0,.17-.06.17-.06.16-.07.16-.08.16-.08.15-.09.14L868,32l-.11.13-.11.13-.11.12-.13.12-.12.11-.14.11-.14.1-.14.09-.15.09-.15.08-.16.07-.16.06-.16.06-.17,0-.17,0-.18,0-.18,0h-.87l-.24,0-.23,0-.23,0-.22,0-.2-.06-.2-.07-.2-.08L863,33l-.18-.1-.17-.1-.16-.12-.15-.12-.14-.13-.14-.14-.12-.15-.12-.16-.11-.17-.11-.18-.09-.18-.09-.2-.08-.2-.07-.22-.06-.22,0-.23,0-.24,0-.25,0-.26a2.28,2.28,0,0,1,0-.27c0-.09,0-.18,0-.27V14.64h-5.84V35l.15,0,.14,0,.14.06.13.07.12.08.12.09.11.1.1.11.09.12.08.12.06.13.06.14,0,.14,0,.15V37l0,.07,0,.15-.06.14-.07.13-.08.12-.1.12-.1.11-.11.1-.12.09-.12.08-.14.07-.14.05-.14,0-.08,0h-.07V1696.54h-.78V38.31l-.14-.05-.13,0-.12-.07-.12-.07-.11-.08-.1-.09-.1-.1-.09-.1-.07-.12-.08-.11-.06-.13-.05-.13,0-.13,0-.14,0-.14v-.29l0-.14,0-.14,0-.13.05-.13.06-.13.07-.11.08-.11.09-.11.1-.1.1-.09.11-.08.11-.07.13-.07.13-.05.13,0V14.64H833.79l0,.13,0,.13-.07.12-.07.12-.09.11-.09.1-.09.09-.11.09-.11.08-.12.07-.12.06-.13,0-.14,0-.14,0-.14,0H832l-.15,0-.14,0-.14-.05-.13,0-.13-.07-.12-.07-.12-.08-.1-.1-.1-.1-.09-.11-.09-.11-.07-.12-.06-.13,0-.14,0-.14h-6.19v-.77Zm31.37,0h5.68V8H861.8ZM861,1.59h-5.84V7.22H861Zm-5.84,12.24H861V8h-5.84Zm-.42,21.92h-.1l-.08,0-.09,0-.08,0-.07,0-.08.05-.06.06-.06.06-.05.07,0,.08,0,.08,0,.08,0,.09v.37l0,.08,0,.09,0,.08,0,.07.05.07.06.07.06.06.08,0,.07,0,.08,0,.09,0,.08,0H855l.09,0,.09,0,.08,0,.07,0,.07,0,.07-.06.06-.07.05-.07,0-.07,0-.08,0-.09,0-.08v-.37l0-.09,0-.08,0-.08,0-.08-.05-.07-.06-.06-.07-.06-.07-.05-.07,0-.08,0-.09,0-.09,0h-.27Zm-23.51-21.5v.09l0,.09,0,.08,0,.08,0,.07.06.08.06.06.06.06.07.05.08.05.08,0,.08,0,.09,0h.37l.09,0,.08,0,.08,0,.08-.05.07-.05.06-.06.06-.06.06-.08,0-.07,0-.08,0-.08,0-.09,0-.09v-.19l0-.09,0-.08,0-.09,0-.08,0-.07-.06-.07-.06-.07-.06-.06-.07,0-.08,0-.08,0-.08,0-.09,0h-.37l-.09,0-.08,0-.08,0-.08,0-.07,0-.06.06-.06.07-.06.07,0,.07,0,.08,0,.09,0,.08v.28Z"/><path class="cls-1" d="M38.65,1705.84l0,.15,0,.13-.06.14-.08.12-.08.12-.09.12-.1.1-.11.1-.11.08-.13.08-.13.06-.13.06-.14,0-.15,0-.15,0h-.47l-.14,0-.15,0-.14-.06-.13-.07-.12-.08-.12-.09-.11-.1-.1-.1-.09-.12-.08-.12-.07-.13-.06-.14,0-.14,0-.15H14.76v5.8h14.8l.27,0,.25,0,.26,0,.24,0,.23.06.23.06.21.07.21.08.19.08.19.09.18.11.17.11.16.11.15.13.14.14.14.14.12.15.12.16.1.16.1.18.08.18.08.19.07.2.06.21.05.21,0,.23,0,.23,0,.24c0,.08,0,.16,0,.24s0,.17,0,.26v.36l0,.18,0,.17,0,.17,0,.17-.06.17-.06.15-.07.16-.08.15-.09.15-.09.14-.1.14-.11.13-.11.13-.12.12-.13.11-.13.11-.13.11-.14.09-.15.09-.15.09-.16.07-.16.07-.16.06-.17.06-.18.05-.17,0-.18,0-.19,0h-.74l-.17,0-.18,0-.18,0-.17-.05-.16,0-.17-.06-.15-.07-.16-.08-.15-.09-.14-.09-.14-.1-.13-.1-.13-.11-.12-.12-.11-.13-.11-.13-.09-.14-.09-.14-.09-.15-.07-.15-.07-.15-.05-.16-.05-.17,0-.17,0-.17,0-.18,0-.18v-.57l0-.22,0-.22.05-.21.07-.19.07-.19.09-.18.1-.17.05-.09.06-.07.06-.08.06-.07.06-.07.07-.07.07-.06.07-.06.07-.06.08-.05.08,0,.08,0,.08,0,.09,0,.09,0,.09,0,.09,0,.09,0,.12,0h.63l.1,0,.12,0,.12,0,.13.05.13,0,.14.07.13.08.14.09.06,0,.06.06.07.06.06.06.05.07.06.08.05.07.05.08,0,.09,0,.09,0,.1,0,.1,0,.11,0,.11,0,.12v.12c0,.06,0,.11,0,.16s0,.1,0,.15v.14l0,.14,0,.12-.05.11-.05.1-.06.09-.06.08-.08.07-.07.07-.08,0-.09.05-.09,0-.09,0-.09,0h-.37l-.09,0-.09,0-.08,0-.08,0-.08,0-.07,0-.06-.06-.06-.07-.05-.07,0-.08,0,0,0,0v-.09l0-.09v-.29l0-.06v-.06l0,0,0,0,0,0,0,0,0,0,0,0,0,0,.05,0,0,0,.05,0,.05,0,.09,0,.1,0,.1,0H30v0h0v-.14l0-.06,0-.07-.05-.06-.06-.07-.08-.06-.08-.06-.09-.06-.1-.06-.1,0-.12,0h-.56l-.08,0-.09,0-.1,0-.09,0-.1.06-.09.06-.09.07-.09.08-.08.1-.08.1-.07.12-.06.12-.06.14a1.31,1.31,0,0,1-.05.15l0,.15,0,.18a1.1,1.1,0,0,0,0,.18v.58l0,.14,0,.13,0,.13,0,.13.05.12,0,.12.06.12.06.11.07.1.07.11.08.09.08.1.09.09.1.08.09.08.11.08.11.06.11.07.12,0,.12.06.13,0,.12,0,.13,0,.14,0,.13,0,.14,0h.57l.15,0,.14,0,.13,0,.14,0,.13,0,.13,0,.12,0,.12-.06.12-.06.11-.07.11-.07.11-.08.1-.08.1-.09.09-.09.08-.1.09-.1.07-.11.07-.11.07-.11.06-.11,0-.12,0-.13,0-.12,0-.13,0-.14,0-.13v-.72l0-.29,0-.15,0-.15,0-.15,0-.14,0-.15,0-.14,0-.14-.06-.14-.07-.13-.08-.13-.09-.13-.09-.12-.11-.12-.12-.11-.12-.11-.14-.1-.15-.1-.16-.09-.18-.08-.19-.07-.2-.07-.22-.06-.23,0-.25,0-.26,0-.28,0H14.76v6.45H7.28v-6.45H.78V1705h6.5v-14.11c0-.11,0-.21,0-.31s0-.2,0-.3l0-.27,0-.26c0-.09,0-.17,0-.25s0-.15-.05-.23l-.06-.21c0-.07,0-.14-.07-.2s0-.13-.08-.19a1.42,1.42,0,0,0-.08-.18l-.09-.16-.1-.15-.1-.14-.11-.12-.11-.12-.12-.1-.12-.1-.13-.08-.13-.08-.14-.07-.14-.06-.14,0-.14,0-.15,0-.14,0-.15,0-.15,0-.15,0-.3,0H3.62l-.14,0-.14,0-.13,0-.13,0-.13,0-.12,0-.12,0-.12.06-.11.06-.11.07-.11.08-.1.08-.1.09-.09.09-.09.09-.09.1-.07.11-.08.11-.07.11-.06.11-.06.12-.05.13,0,.12,0,.13,0,.14,0,.13,0,.14,0,.15v.56l0,.14,0,.14,0,.13,0,.13,0,.12,0,.13.06.12.05.11.07.12.07.1.07.11.08.1.09.09.09.09.09.08.1.08.1.07.11.07.12.06.11.05.12,0,.13,0,.12,0,.13,0,.14,0h.14l.14,0H4l.19,0,.17,0,.16,0,.15,0,.14-.06.12-.06L5,1692l.1-.08.1-.08.08-.09.07-.09.07-.09.05-.09,0-.1,0-.09,0-.1v-.08l0-.08v-.39l0-.08,0-.11,0-.11,0-.1-.06-.09-.06-.08-.07-.07L5.2,1690l-.06,0-.07-.05-.06,0H4.85v0h0v.4l0,.1,0,.1,0,.1,0,0,0,.05,0,0,0,0,0,0,0,0,0,0,0,0,0,0,0,0-.05,0H3.8l0,0h0l-.05,0-.08,0-.07,0-.07-.06-.06-.06-.06-.07,0-.08,0-.08,0-.08,0-.09,0-.08v-.37l0-.09,0-.09,0-.09,0-.08.06-.09.06-.07.08-.07.08-.07.09-.06.1-.05.12,0,.12,0,.13,0,.14,0h.44l.12,0,.11,0,.11,0,.1,0,.1,0,.09,0,.09,0,.08,0,.08,0,.07.06.07.05.07.06.06.06,0,.07.06.06.09.13.08.14.07.13,0,.13s0,.09.05.13l0,.12,0,.12,0,.1v.27h0v.23l0,.12,0,.12,0,.1,0,.09,0,.09,0,.08,0,.09,0,.08-.05.08,0,.08,0,.07-.06.08-.06.07-.06.07-.07.06-.07.07-.07.06-.08.06-.08,0-.08.06-.17.09-.18.09-.2.07-.2.07-.21,0-.21,0-.23,0H3.44l-.18,0-.18,0-.18,0-.17,0-.16,0-.17,0-.15-.07-.16-.07-.15-.08-.14-.09-.14-.1-.13-.1-.13-.12-.12-.11-.11-.13-.11-.13-.1-.14-.09-.14-.08-.15-.08-.15-.07-.16L.58,1691l-.06-.17,0-.17,0-.17,0-.17,0-.18,0-.18v-.37l0-.18,0-.19,0-.17,0-.18,0-.17.06-.17.06-.16.07-.16.08-.16.08-.15.09-.14.1-.14.11-.14.11-.13.11-.12.12-.12.13-.11.14-.11.13-.1.15-.09.15-.08.15-.08.16-.07.16-.07.16,0,.17-.05.17,0,.18,0,.18,0,.18,0h.44l.25,0,.24,0,.23,0,.23,0,.21.05.21.06.2.07.2.08.18.09.18.09.16.11.16.11.16.12.14.14.14.14.12.15.12.16.11.16.11.18.09.19.09.19.07.21.07.21.07.22,0,.23,0,.24,0,.25,0,.26a7.33,7.33,0,0,1,0,.54V1705h5.84v-20.32l-.15,0-.14-.05-.14-.06-.13-.07-.12-.08-.12-.09-.11-.1-.1-.11-.09-.11-.08-.13-.07-.13,0-.13-.05-.15,0-.14,0-.08v-.62l0-.07.05-.15.06-.13.07-.14.08-.12.09-.12.11-.1.11-.1.12-.09.12-.08.14-.07.14-.06.14,0h.08l.07,0V20.76h.78V1681.33l.14,0,.13.06.12.06.12.07.11.09.1.09.1.09.08.11.08.11.07.12.07.12.05.13,0,.13,0,.14,0,.14v.29l0,.15,0,.13,0,.14-.05.13-.06.12-.07.12-.08.11-.09.1-.1.1-.1.09-.11.08-.12.07-.12.07-.13,0-.13.05V1705H35.29l.05-.13,0-.13.07-.12.07-.12.08-.1.1-.11.09-.09.11-.09L36,1704l.12-.07.12-.06.13-.05.14,0,.14,0h.44l.14,0,.15,0,.14,0,.13.05.13.07.12.07.12.09.1.09.1.1.09.11.09.12.07.12.06.13.05.13,0,.14h6.19v.77Zm-31.37,0H1.6v5.8H7.28ZM8.1,1718h5.84v-5.63H8.1Zm5.84-12.24H8.1v5.8h5.84Zm.42-21.91.09,0,.09,0,.09,0,.08,0,.07,0,.07-.06.07-.06.06-.06,0-.07.05-.08,0-.08,0-.08,0-.09v-.36l0-.09,0-.09,0-.07-.05-.08,0-.07-.06-.06-.07-.06-.07-.06-.07,0-.08,0-.09,0-.09,0-.09,0h-.18l-.1,0-.08,0-.09,0-.08,0-.07,0-.07.06-.07.06-.06.06-.05.07,0,.08,0,.07,0,.09,0,.09v.36l0,.09,0,.08,0,.08,0,.08.05.07.06.06.07.06.07.06.07,0,.08,0,.09,0,.08,0,.1,0h.18Zm23.51,21.49v-.09l0-.08,0-.09,0-.08,0-.07-.06-.07-.06-.07-.06-.06-.07,0-.08,0-.08,0-.08,0-.09,0h-.37l-.09,0-.08,0-.08,0-.08,0-.07,0-.06.06-.06.07-.06.07,0,.07,0,.08,0,.09,0,.08,0,.09v.19l0,.09,0,.09,0,.08,0,.08,0,.08.06.07.06.06.06.06.07,0,.08,0,.08,0,.08,0,.09,0h.37l.09,0,.08,0,.08,0,.08,0,.07,0,.06-.06.06-.06.06-.07,0-.08,0-.08,0-.08,0-.09v-.28Z"/><path class="cls-1" d="M40.53,1705.84v-.77H830.44l0-.14,0-.13.06-.13.07-.12.09-.12.09-.11.1-.1.1-.09.12-.09.12-.07.13-.07.13-.05.14,0,.14,0,.15,0h.44l.14,0,.14,0,.13.05.12.06.12.07.11.08.11.09.09.09.09.11.09.1.07.12.07.12,0,.13,0,.13h20.53v-20.36l-.13-.05-.13,0-.13-.07-.11-.07-.11-.08-.1-.09-.1-.1-.09-.1-.08-.11-.07-.12-.06-.12-.05-.13,0-.14,0-.13,0-.15v-.29l0-.14,0-.14,0-.13.05-.13.06-.12.08-.12.07-.11.09-.11.1-.09.1-.09.11-.09.12-.07.12-.06.13-.06.14,0v-5.91h.78v5.86l.07,0h.08l.14,0,.14.06.14.07.12.08.12.09.11.1.1.1.1.12.08.12.07.14.06.13,0,.15,0,.07v.7l0,.14,0,.15-.06.13-.06.13-.08.13-.09.11-.1.11-.11.1-.12.09-.12.08-.13.07-.14.06-.14.05-.15,0V1705H861v-14.4c0-.09,0-.18,0-.27a2.45,2.45,0,0,1,0-.27l0-.26,0-.25,0-.24,0-.23.06-.22.07-.21.08-.21.09-.19.09-.19.11-.18.11-.16.12-.16.12-.15.14-.14.14-.14.15-.12.16-.11.17-.11.18-.09.18-.09.2-.08.2-.07.2-.06.22-.05.23,0,.23,0,.24,0,.25,0h.44l.18,0,.18,0,.18,0,.17,0,.17.05.16,0,.16.07.16.07.15.08.15.08.14.09.14.1.14.11.12.11.13.12.11.12.11.13.11.14.1.14.09.14.08.15.08.16.07.16.06.16.06.17,0,.17,0,.18,0,.17,0,.19,0,.18v.37l0,.18,0,.18,0,.17,0,.17,0,.17-.06.17-.06.16-.07.16-.08.15-.08.15-.1.14-.09.14-.11.13-.11.13-.12.11-.13.12-.13.1-.14.1-.15.09-.14.08-.16.07-.15.07-.17,0-.16,0-.17,0-.18,0-.18,0-.18,0h-.57l-.23,0-.21,0-.21,0-.2-.07-.2-.07-.18-.09-.17-.09-.08-.06-.08,0-.08-.06-.07-.06-.07-.07-.07-.06-.06-.07-.06-.07-.06-.08,0-.07,0-.08-.05-.08,0-.08,0-.09,0-.08,0-.09,0-.09,0-.1,0-.12,0-.12v-.23h0v-.27l0-.1,0-.12,0-.12s0-.08,0-.13l.05-.13.07-.13.08-.14.09-.13.06-.06.05-.07.06-.06.07-.06.07-.05.07-.06.08,0,.08,0,.09,0,.09,0,.1,0,.1,0,.11,0,.11,0,.12,0h.44l.14,0,.13,0,.12,0,.12,0,.1.05.09.06.08.07.08.07.06.07.06.09,0,.08,0,.09,0,.09,0,.09v.37l0,.08,0,.09,0,.08,0,.08,0,.08-.06.07-.06.06-.07.06-.07,0-.08,0,0,0h0l-.05,0h-.54l-.05,0,0,0,0,0,0,0,0,0,0,0,0,0,0,0,0,0,0-.05,0,0,0-.1,0-.1,0-.1v-.4h0l0,0h-.16l-.06,0-.06.05-.06,0-.07.06-.07.07-.06.08-.06.09,0,.1-.05.11,0,.11v.47l0,.08v.08l0,.1,0,.09.05.1,0,.09.07.09.07.09.08.09.1.08.1.08.12.07.12.06.14.06.15,0,.16,0,.17,0,.19,0h.44l.14,0h.14l.14,0,.13,0,.12,0,.13,0,.12,0,.11-.05.12-.06.1-.07.11-.07.1-.08.09-.08.09-.09.09-.09.08-.1.07-.11.07-.1.07-.12,0-.11.06-.12,0-.13,0-.12,0-.13,0-.13,0-.14,0-.14v-.56l0-.15,0-.14,0-.13,0-.14,0-.13-.05-.12,0-.13-.06-.12-.06-.11-.07-.11-.08-.11-.08-.11-.08-.1-.09-.09-.09-.09-.1-.09-.1-.08-.11-.08-.11-.07-.11-.06-.12-.06-.12,0-.12,0-.13,0-.13,0-.13,0-.14,0-.14,0h-.58l-.3,0-.15,0-.15,0-.15,0-.14,0-.15,0-.14,0-.14,0-.14.06-.14.07-.13.08-.13.08-.12.1-.12.1-.11.12-.11.12-.1.14-.1.15-.09.16a1.42,1.42,0,0,0-.08.18,1.08,1.08,0,0,0-.08.19c0,.06-.05.13-.07.2l-.06.21c0,.08,0,.15-.05.23s0,.16,0,.25l0,.26,0,.27c0,.1,0,.2,0,.3s0,.2,0,.31V1705h6.5v7.42h-6.5v6.45h-7.48v-6.45H839.48l-.28,0-.26,0-.25,0-.23,0-.22.06-.2.07-.19.07-.18.08-.16.09-.15.1-.14.1-.13.11-.11.11-.11.12-.09.12-.09.13-.08.13-.07.13-.06.14-.05.14,0,.14,0,.15,0,.14,0,.15,0,.15,0,.15,0,.29v.72l0,.13,0,.14,0,.13,0,.12.05.13,0,.12.06.11.07.11.07.11.07.11.09.1.08.1.09.09.1.09.1.08.11.08.1.07.12.07.12.06.12.06.12,0,.13,0,.13,0,.13,0,.14,0,.14,0,.15,0h.57l.14,0,.13,0,.14,0,.13,0,.12,0,.13,0,.12-.06.12,0,.11-.07.11-.06.1-.08.1-.08.1-.08.09-.09.08-.1.08-.09.07-.11.07-.1.06-.11.06-.12,0-.12.05-.12,0-.13,0-.13,0-.13,0-.14v-.58c0-.06,0-.12,0-.18l0-.18,0-.15a1.31,1.31,0,0,1,0-.15l-.06-.14-.06-.12-.07-.12-.08-.1-.08-.1-.09-.08-.09-.07-.09-.06-.1-.06-.09,0-.1,0-.09,0-.08,0h-.56l-.12,0-.1,0-.1.06-.09.06-.08.06-.08.06-.06.07,0,.06,0,.07,0,.06,0,0v.12h0v0h.42l.1,0,.1,0,.09,0,0,0,.05,0,0,0,0,0,0,0,0,0,0,0,0,0,0,0,0,0,0,0v.06l0,.06v.29l0,.09v.09l0,0,0,0,0,.08-.05.07-.06.07-.06.06-.07,0-.08,0-.08,0-.08,0-.09,0-.09,0h-.37l-.09,0-.09,0-.09,0-.09-.05-.08,0-.07-.07-.08-.07-.06-.08-.06-.09-.05-.1,0-.11,0-.12,0-.14v-.14a.71.71,0,0,1,0-.15.92.92,0,0,1,0-.16V1715l0-.12,0-.11,0-.11,0-.1,0-.1,0-.09,0-.09.05-.08,0-.07.06-.08.05-.07.06-.06.06-.06.07-.06.06,0,.13-.09.14-.08.14-.07.13,0,.13-.05.12,0,.11,0,.11,0h.62l.13,0,.09,0,.09,0,.09,0,.09,0,.08,0,.09,0,.08,0,.08,0,.07.05.08.06.07.06.07.06.07.07.06.07.06.07.06.08.06.07.05.09.1.17.09.18.07.19.07.19,0,.21,0,.22,0,.22v.57l0,.18,0,.18,0,.17,0,.17,0,.17-.06.16-.06.15-.08.15-.08.15-.09.14-.09.14-.11.13-.11.13-.12.12-.13.11-.13.1-.14.1-.14.09-.15.09-.16.08-.15.07-.17.06-.17,0-.17.05-.17,0-.18,0-.18,0h-.73l-.19,0-.18,0-.17,0-.18-.05-.17-.06-.16-.06-.16-.07-.16-.07-.15-.09-.15-.09-.14-.09-.13-.11-.14-.11-.12-.11-.12-.12-.11-.13-.11-.13-.1-.14-.09-.14-.09-.15-.08-.15-.07-.16-.06-.15-.06-.17,0-.17,0-.17,0-.17,0-.18v-.36a2.26,2.26,0,0,1,0-.26c0-.08,0-.16,0-.24l0-.24,0-.23,0-.23.05-.21.06-.21.07-.2.07-.19.09-.18.1-.18.1-.16.12-.16.12-.15.14-.14.14-.14.15-.13.16-.11.17-.11.18-.11.19-.09.19-.08.21-.08.21-.07.23-.06.23-.06.24,0,.25,0,.26,0,.27,0h14.8v-5.8H833.83l0,.15,0,.14-.06.14-.07.13-.08.12-.09.12-.1.1-.11.1-.12.09-.12.08-.14.07-.13.06-.15,0-.15,0H832l-.15,0-.15,0-.14,0-.13-.06-.13-.06-.13-.08-.11-.08-.11-.1-.1-.1-.09-.12-.09-.12-.07-.12-.06-.14,0-.13,0-.15Zm821.27,5.76h5.68v-5.8H861.8Zm-.82.81h-5.84V1718H861Zm-5.84-.81H861v-5.8h-5.84Zm-.33-27.71h.09l.09,0,.09,0,.09,0,.08,0,.07,0,.07-.06.07-.06.06-.06.05-.07,0-.08,0-.08,0-.08,0-.09v-.36l0-.09,0-.09,0-.07,0-.08-.05-.07-.06-.06-.07-.06-.07-.06-.07,0-.08,0-.09,0-.09,0-.09,0h-.18l-.1,0-.08,0-.09,0-.08,0-.07,0-.08.06-.06.06-.06.06-.05.07,0,.08,0,.07,0,.09,0,.09v.36l0,.09,0,.08,0,.08,0,.08.05.07.06.06.06.06.08.06.07,0,.08,0,.09,0,.08,0,.1,0Zm-23.6,21.59v.18l0,.09,0,.08,0,.08,0,.08.06.07.06.06.06.06.07,0,.08,0,.08,0,.08,0,.09,0h.37l.09,0,.08,0,.08,0,.08,0,.07,0,.06-.06.06-.06.06-.07,0-.08,0-.08,0-.08,0-.09,0-.09v-.19l0-.09,0-.08,0-.09,0-.08,0-.07-.06-.07-.06-.07-.06-.06-.07,0-.08,0-.08,0-.08,0-.09,0h-.37l-.09,0-.08,0-.08,0-.08,0-.07,0-.06.06-.06.07-.06.07,0,.07,0,.08,0,.09,0,.08v.19Z"/></svg>