<svg id="Layer_1" data-name="Layer 1" xmlns="http://www.w3.org/2000/svg" viewBox="0 0 1999.11 1293.71"><defs><style>.cls-1{fill:#efe9df;stroke:#efe9df;stroke-miterlimit:10;stroke-width:0.56px;}</style></defs><title>piezas</title><path class="cls-1" d="M1965.1,10.57v.6H29.67l0,.11,0,.1-.05.1-.05.09-.07.09-.07.08-.07.08-.09.07-.08.07L29,12l-.1.05-.1,0-.11,0-.11,0-.11,0h-.23l-.11,0-.1,0-.11,0-.1,0L27.75,12l-.09,0-.09-.06-.08-.07-.08-.07-.06-.08-.07-.08-.05-.09-.05-.09-.05-.1,0-.1H11.33V26.84l.11,0,.09,0,.1,0,.09.06.08.06.08.07.07.07.07.08.06.09.06.09,0,.09,0,.1,0,.1,0,.11v.44l0,.11,0,.1,0,.1,0,.09-.05.09-.06.09L12,29l-.07.07-.08.07-.09.06-.09.06-.09.05-.1,0-.1,0v4.53h-.6v-4.5h-.06l-.06,0-.11,0-.11,0-.1-.06-.1-.06-.09-.07L10,29.05,9.94,29l-.07-.09-.06-.09-.06-.1-.05-.11,0-.11,0-.06v-.53l0-.11,0-.11.05-.1.05-.1.06-.1.07-.09.08-.08.08-.08.09-.07.09-.06.1,0,.11-.05.11,0,.11,0V11.23H6.22v11a1.48,1.48,0,0,0,0,.21l0,.21a1.23,1.23,0,0,0,0,.19l0,.19,0,.19,0,.18,0,.17L6,23.77l-.06.16-.06.15-.08.14-.08.13-.08.13-.09.13-.1.11-.1.11-.11.1L5.08,25,5,25.11l-.13.08-.14.08-.14.06-.15.06-.15.05-.16,0-.17,0-.17,0-.18,0-.18,0H2.58l-.14,0-.13,0-.13,0-.13,0-.12-.05-.12,0-.12-.06-.11-.07-.11-.07-.11-.07L1.26,25l-.1-.09-.09-.09L1,24.72l-.08-.1-.08-.1-.08-.11L.67,24.3l-.06-.11-.06-.12L.49,24l0-.13,0-.13,0-.13,0-.13,0-.14v-.84l0-.13,0-.14,0-.13,0-.12,0-.13.05-.12.06-.12.07-.11.07-.11.08-.1.08-.1L1,21,1.08,21l.1-.09.1-.08.1-.07.11-.07.12-.06.11-.06.13-.05.12,0,.13,0,.13,0,.13,0,.14,0h.58l.17,0,.17,0,.16,0,.15.05.15.05.14.07.13.08.07,0,.06,0,0,0,.06.05.05.05.06,0,0,.05,0,.06,0,.06,0,.05,0,.06,0,.07,0,.06,0,.06,0,.07,0,.07,0,.07v.07l0,.09V22h0v.29l0,.09,0,.09,0,.1-.05.1,0,.1-.06.1-.07.1,0,.05,0,0,0,.05,0,0,0,0-.06,0-.06,0-.06,0-.07,0L4,23.4l-.08,0-.07,0-.09,0-.08,0H3.18l-.1,0-.1,0-.08,0-.08,0-.07,0-.07-.05-.05-.06,0-.06,0-.06,0-.06,0-.07,0-.07,0-.07v-.28l0-.07,0-.07,0-.06,0-.06,0-.06,0,0,0-.05.05,0,.06,0,.06,0,0,0h.49l0,0,0,0,0,0,0,0,0,0,0,0,0,0,0,0,0,0,0,0v0l0,.07v.29a.57.57,0,0,1,0,.12v0h.15l0,0,.05,0,0,0,0-.05,0-.05,0-.07.05-.07,0-.07,0-.08,0-.09v-.48l0-.08,0-.07,0-.07,0-.07,0-.07-.06-.07L4,21.29l-.07-.06-.08-.06-.09-.05-.1-.05-.11,0-.11,0-.12,0-.14,0H2.59l-.1,0-.11,0-.1,0-.1,0-.09,0-.09,0-.09,0-.09.05-.08.05-.08.05-.08.06-.07.07-.07.06-.06.08-.07.07-.05.08-.06.08-.05.09,0,.09,0,.09,0,.1,0,.09,0,.1,0,.1v.11l0,.1v.44l0,.11v.1l0,.11,0,.1,0,.1,0,.1,0,.09,0,.09.05.09.05.09.06.08.06.08.06.08.07.07.07.07.08.07.08.06.08.06.08.05.09,0,.09.05.09,0,.1,0,.09,0,.1,0,.11,0,.1,0h.55l.23,0h.12l.11,0,.12,0,.11,0,.11,0,.11,0,.11,0,.11,0,.1-.05.1-.06.1-.07.09-.07.1-.08.08-.09.09-.1.08-.1L5.16,24l.07-.12.06-.14.06-.14a.88.88,0,0,0,.05-.15l0-.17c0-.06,0-.12,0-.18l0-.18a1.23,1.23,0,0,1,0-.2c0-.07,0-.14,0-.22a1.55,1.55,0,0,0,0-.22c0-.08,0-.16,0-.24V11.23H.6V5.54h5V.59h5.74v5h11.4l.21,0,.2,0,.19,0,.18,0,.17,0,.15-.06.15,0,.13-.07.13-.07L24.35,5,24.46,5l.1-.08.09-.09.08-.09.07-.09.07-.1.06-.1.05-.1L25,4.2l0-.1,0-.11,0-.11,0-.11,0-.12V3.54l0-.11V2.76l0-.11,0-.1,0-.11,0-.1,0-.09,0-.1,0-.09L25,2l-.05-.08-.06-.09-.06-.08-.06-.08-.07-.07-.07-.07-.07-.07-.08-.06-.08-.06-.08-.06-.09-.05-.09-.05L24,1.1l-.1,0-.1,0-.1,0-.1,0-.11,0-.1,0h-.66l-.11,0-.1,0-.1,0-.09,0-.1,0-.09,0-.09,0L22,1.2l-.08.05-.09.05-.07.07-.07.06-.07.07-.07.07-.06.08-.05.08-.05.08-.05.08,0,.09,0,.09,0,.1,0,.09,0,.1v.11l0,.1V3s0,.09,0,.14a.59.59,0,0,0,0,.13l0,.12,0,.11.05.11.05.09.05.09.06.08.06.07.07.07.07,0,.07,0,.07,0,.08,0,.07,0,.07,0h.49l.09,0,.08,0,.08,0,.07,0,.06-.05.06,0,0,0,0,0,0-.05s0,0,0,0v0h0v0h0v0h-.4l-.08,0-.07,0h0l0,0,0,0,0,0,0,0,0,0,0,0,0,0,0,0v0l0,0V2.8l0-.07,0,0,.05-.05,0,0,.05,0,.06,0,.06,0,.07,0,.06,0,.07,0h.29l.07,0,.07,0,.07,0,.06,0,.06,0,.06,0,.06.05,0,.07,0,.07,0,.07,0,.09,0,.09a.36.36,0,0,1,0,.1l0,.11v.11a.57.57,0,0,1,0,.13v.09l0,.09,0,.09,0,.08,0,.08,0,.07,0,.07,0,.07,0,.06,0,.06,0,.06-.05,0,0,0-.05,0-.05,0-.05,0-.1.07-.1.06-.11.05-.1,0-.1,0-.09,0-.09,0H22l-.1,0-.07,0-.07,0-.07,0-.06,0-.07,0-.06,0-.07,0-.06,0-.06,0-.05,0-.06,0,0,0-.05,0L21,4.35,21,4.3l0-.06-.05-.06,0-.06L20.74,4l-.06-.14-.06-.15-.05-.15,0-.16,0-.17,0-.17V2.62l0-.14,0-.14,0-.13,0-.13,0-.13.05-.12,0-.12.05-.12.07-.11.06-.11.08-.1.08-.1.09-.1L21.24,1l.09-.09.11-.08.1-.07.11-.07L21.77.6l.12-.06L22,.49l.12,0,.13,0,.13,0,.14,0,.13,0h.85l.14,0,.13,0,.13,0,.13,0,.13,0,.12.05.12.06.12.07.11.07.11.07.11.08L25,1l.09.09.09.09.09.1.08.1.08.11.07.11.07.11.06.12.05.12.05.12,0,.12,0,.13,0,.13,0,.14V3a1.34,1.34,0,0,1,0,.2v.37l0,.18,0,.17,0,.16-.05.16-.05.15-.06.15-.07.14-.07.13-.08.13L25.26,5l-.09.12-.11.11-.11.1-.11.1-.12.09-.14.08-.13.08-.15.07-.15.07L24,5.91l-.16,0-.17,0-.18,0-.19,0-.19,0-.2,0H11.33V10.6H27.06l0-.11,0-.11,0-.1.06-.1.06-.1.07-.08.08-.09.08-.07.09-.07.1-.06.1-.05.1-.05.11,0,.12,0h.47l.11,0,.11,0,.1,0,.1,0,.1.06.09.07.08.07.08.08.07.09.06.09.06.1,0,.1,0,.1,0,.11ZM5.59,6.16H1.23V10.6H5.59Zm.63-.62H10.7V1.22H6.22Zm4.48.62H6.22V10.6H10.7ZM11,27.41h-.15l-.06,0-.07,0-.06,0-.06,0-.05,0,0,0-.05.05,0,.06,0,.06,0,.06,0,.06v.42l0,.06,0,.06,0,.06,0,.05.05.05,0,0,.05,0,.06,0,.06,0,.07,0h.42l.06,0,.06,0,.06,0,.06,0,.05,0,0-.05,0-.05,0-.06,0-.06,0-.06,0-.07V28l0-.07,0-.06,0-.06,0-.06,0-.06,0-.05-.05,0-.06,0-.06,0-.06,0-.06,0-.07,0H11ZM29.08,10.86v-.14l0-.07,0-.07,0-.06,0,0,0-.06-.05-.05-.05,0-.05,0-.06,0-.06,0-.07,0-.06,0h-.29l-.07,0-.06,0-.06,0-.06,0-.05,0-.05,0-.05.05,0,.06,0,0,0,.06,0,.07,0,.07V11l0,.06,0,.07,0,.06,0,.06,0,.05.05,0,.05.05.05,0,.06,0,.06,0,.06,0,.07,0h.29l.06,0,.07,0,.06,0,.06,0,.05,0,.05-.05.05,0,0-.05,0-.06,0-.06,0-.07,0-.06v-.14Z"/><path class="cls-1" d="M1969.43,10.57l0-.11,0-.1,0-.1,0-.1.06-.09.07-.09.08-.08.08-.07.09-.07.1-.06.1,0,.1,0,.11,0,.11,0h.48l.11,0,.11,0,.11.05.1.05.09.06.09.07.09.07.07.09.07.08.07.1,0,.1,0,.1,0,.11,0,.11h15.73V6.16h-11.57l-.2,0-.19,0-.19,0-.17,0-.18,0-.16,0-.16-.06-.15-.07-.14-.07-.14-.08-.13-.08-.13-.09-.11-.1-.11-.1-.1-.11-.1-.12-.09-.12-.08-.13-.07-.13-.07-.14-.06-.15,0-.15,0-.16,0-.16,0-.17,0-.18,0-.18V3.17a1.34,1.34,0,0,0,0-.2V2.69l0-.13,0-.14,0-.13,0-.13,0-.12,0-.12,0-.12.06-.12.07-.11.07-.11.08-.11.08-.1.09-.1.09-.09.1-.09.1-.08.1-.08.11-.07.11-.07.12-.07.12-.06.12-.05.13,0,.13,0,.13,0,.14,0,.13,0h.85l.14,0,.13,0,.13,0,.13,0,.12,0,.13.05.11.06.12.07.11.07.11.07.1.08.09.09.1.09.08.1.08.1.08.1.07.11.06.11.06.12,0,.12,0,.12,0,.13,0,.13,0,.13,0,.14v.57l0,.17,0,.17,0,.16,0,.15-.06.15-.06.14-.08.13,0,.06,0,.06,0,.06-.05,0,0,.06-.06,0,0,0-.06,0-.05,0-.06,0-.06,0-.06,0-.07,0-.06,0-.07,0-.07,0-.07,0-.07,0-.09,0h-.57l-.08,0-.1,0-.1,0-.1,0-.1-.05-.11-.06-.1-.07-.05,0,0,0,0,0,0,0,0,0,0-.06,0-.06,0-.06,0-.07,0-.07,0-.07,0-.08,0-.08,0-.09V3.5s0-.09,0-.13,0-.07,0-.11V3.15s0-.07,0-.1l0-.09,0-.09,0-.07,0-.07,0-.07.05-.05.06,0,.06,0,.07,0,.07,0,.06,0,.08,0h.28l.07,0,.07,0,.06,0,.06,0,.06,0,.06,0,0,0,0,.05,0,0,0,.07v0l0,0v.07l0,.07v.27l0,0v0l0,0,0,0,0,0,0,0,0,0,0,0,0,0,0,0,0,0h0l-.07,0-.08,0h-.4v0h0v0h0v0l0,0,0,.05,0,0,0,0,0,0,.07.05.07,0,.07,0,.08,0,.09,0h.49l.07,0,.08,0,.07,0,.07,0,.07,0,.07,0,.07-.07.06-.07.06-.08.06-.09,0-.09,0-.11a.76.76,0,0,1,0-.11.53.53,0,0,1,0-.12.59.59,0,0,1,0-.13c0-.05,0-.1,0-.14V2.47l0-.11,0-.1,0-.09,0-.1,0-.09,0-.09,0-.08,0-.08-.06-.08-.06-.08-.06-.07-.07-.07-.08-.06-.07-.07-.08-.05-.09-.05-.08-.05-.09,0-.1,0-.09,0-.1,0-.1,0-.1,0-.11,0h-.65l-.11,0-.11,0-.1,0-.1,0-.1,0-.1,0-.09,0-.09.05-.08.05-.09.06-.08.06-.08.06-.07.07-.07.07-.07.07-.06.08-.06.08,0,.09,0,.08-.05.09,0,.09,0,.1,0,.09,0,.1,0,.11,0,.1v.78l0,.11v.11l0,.12,0,.11,0,.11,0,.11,0,.1.05.11,0,.1.06.1.07.1.07.09.08.09.09.09.1.08.11.08.11.07.13.07.13.07.15,0,.16.06.16,0,.18,0,.19,0,.2,0,.22,0h11.39V.59h5.75v5h5v5.69h-5V22.29c0,.08,0,.15,0,.22s0,.15,0,.22l0,.2,0,.18c0,.06,0,.12,0,.18l0,.17,0,.15.06.14.06.14.07.12.08.12.08.1.08.1.09.09.09.08.09.07.1.07.1.06.11.05.1,0,.11,0,.11,0,.11,0,.11,0,.12,0,.11,0h.12l.23,0h.55l.11,0,.1,0,.1,0,.1,0,.09,0,.09,0,.09-.05.09,0,.09-.05.08-.06.08-.06.07-.07.07-.07.07-.07.06-.08.07-.08,0-.08.06-.09,0-.09,0-.09,0-.09,0-.1,0-.1,0-.1,0-.11,0-.1v-.65l0-.11,0-.1,0-.1,0-.09,0-.1,0-.09,0-.09,0-.09-.06-.08,0-.08-.06-.07-.07-.08-.07-.06-.07-.07-.08-.06-.08-.05-.08-.05-.09-.05-.08,0-.1,0-.09,0-.1,0-.1,0-.1,0-.11,0h-.59l-.13,0-.13,0-.11,0-.11,0-.09.05-.09.05-.08.06-.08.06-.06.07-.06.07,0,.07,0,.07,0,.07,0,.07,0,.08v.48l0,.09,0,.08,0,.07,0,.07,0,.07,0,.05,0,.05.05,0,0,0,0,0h.15v-.37l0-.08,0-.07v0l0,0,0,0,0,0,0,0,0,0,0,0,0,0,0,0,0,0,0,0h.49l0,0,.06,0,.06,0,0,0,0,.05,0,0,0,.06,0,.06,0,.06,0,.07v.35l0,.07,0,.07,0,.07,0,.06,0,.06,0,.06,0,.06-.07.05-.07,0-.07,0-.09,0-.09,0-.11,0h-.53l-.09,0-.08,0-.08,0-.08,0-.07,0-.06,0-.07,0-.06,0,0,0-.06,0,0,0,0-.05,0,0,0-.05-.07-.1-.06-.1-.05-.1,0-.1,0-.1,0-.09,0-.09V22h0v-.27l0-.09,0-.07,0-.07,0-.07,0-.07,0-.06,0-.06,0-.07,0-.06,0-.05,0-.06,0-.06,0-.05.05,0,0-.05.06-.05.06,0,.06,0,.06,0,.13-.08.14-.07.15-.05.15-.05.16,0,.17,0,.17,0h.58l.14,0,.13,0,.13,0,.13,0,.13,0,.12.05.12.06.11.06.11.07.11.07.1.08.09.09.1.09.08.1.09.1.07.1.07.11.07.11.06.12,0,.12.05.13,0,.12,0,.13,0,.14,0,.13,0,.14v.56l0,.14,0,.14,0,.13,0,.13,0,.13-.05.13,0,.12-.06.12-.07.11-.07.11-.07.11-.08.1-.09.1-.09.1-.09.09-.1.09-.1.08-.11.07-.11.07-.11.07-.12.06-.12,0-.12.05-.13,0-.13,0-.13,0-.14,0h-.8l-.19,0-.18,0-.17,0-.17,0-.16,0-.15-.05-.15-.06-.14-.06-.13-.08-.13-.08L1994,25l-.11-.09-.11-.1-.11-.11-.09-.11-.1-.13-.08-.13-.08-.13-.07-.14-.07-.15-.06-.16-.05-.16,0-.17,0-.18,0-.19,0-.19a1.23,1.23,0,0,0,0-.19v-.21a1.48,1.48,0,0,1,0-.21v-11h-4.48V26.81l.11,0,.11,0,.11.05.1,0,.09.06.09.07.09.08.07.08.07.09.06.1.06.1,0,.1,0,.11,0,.11v.53l0,.06,0,.11-.05.11,0,.1-.07.09-.07.09-.07.09-.09.07-.09.07-.1.06-.1.06-.11,0-.11,0-.06,0h-.06V1276h-.6V29.38l-.1,0-.1,0-.09-.05-.09-.06-.09-.06-.08-.07-.07-.07-.07-.08-.06-.09,0-.09,0-.09,0-.1,0-.1,0-.11,0-.11V28l0-.11,0-.11,0-.1,0-.1,0-.09,0-.09.06-.09.07-.08.07-.07.08-.07.09-.06.08-.06.1,0,.1,0,.1,0V11.23H1972l0,.1,0,.1,0,.09-.06.09-.06.08-.07.08-.08.07-.08.07-.08.06-.1,0-.09.05-.1,0-.1,0-.11,0-.11,0h-.23l-.11,0-.11,0-.11,0-.1,0-.1-.05-.09,0-.09-.07-.08-.07-.08-.08-.07-.08-.06-.09-.06-.09,0-.1,0-.1,0-.11h-4.75v-.6Zm24.1,0h4.35V6.16h-4.35Zm-.64-9.38h-4.48V5.54h4.48Zm-4.48,9.38h4.48V6.16h-4.48Zm-.33,16.81H1988l-.06,0-.07,0-.06,0-.06,0,0,0,0,0-.05.05,0,.06,0,.06,0,.06,0,.06,0,.07v.28l0,.07,0,.06,0,.06,0,.06,0,.05.05.05,0,0,0,0,.06,0,.06,0,.07,0h.42l.06,0,.06,0,.06,0,0,0,.05,0,0-.05,0-.05,0-.06,0-.06,0-.06,0-.07V28l0-.07,0-.06,0-.06,0-.06,0-.06,0-.05-.05,0,0,0-.06,0-.06,0-.06,0-.07,0h-.22Zm-18-16.48v.13l0,.07,0,.06,0,.06,0,.05,0,0,0,.05,0,0,.06,0,.06,0,.07,0,.07,0h.28l.07,0,.06,0,.06,0,.06,0,.06,0,0-.05,0,0,0-.05,0-.06,0-.06,0-.07,0-.06v-.28l0-.07,0-.07,0-.06,0,0,0-.06,0-.05,0,0-.06,0-.06,0-.06,0-.06,0-.07,0h-.28l-.07,0-.07,0-.06,0-.06,0,0,0,0,0,0,.05,0,.06,0,0,0,.06,0,.07v.28Z"/><path class="cls-1" d="M29.68,1283.14l0,.11,0,.1,0,.11-.06.09-.06.09-.07.09-.08.08-.08.07-.09.07-.1.06-.1,0-.1,0-.11,0-.11,0-.12,0h-.35l-.12,0-.11,0-.1,0-.1,0-.1-.06-.09-.07-.08-.07-.08-.08-.07-.09-.06-.1-.06-.1,0-.1,0-.11,0-.11H11.33v4.44H22.69l.21,0,.2,0,.19,0,.19,0,.18,0,.17,0,.16,0,.16.06.15.07.15.07.13.08.14.08.12.09.11.1.11.1.11.11.09.12.09.12.08.13.07.13.07.14.06.15.05.15.05.16,0,.16,0,.18,0,.17v.37a1.34,1.34,0,0,1,0,.2v.41l0,.14,0,.13,0,.13,0,.12-.05.13-.05.12-.06.11-.07.11-.07.11-.08.11-.08.1-.09.1-.09.09-.09.09-.1.08-.11.08-.11.08-.11.07-.12.06-.12.06-.12,0-.13,0-.13,0-.13,0-.13,0-.14,0-.14,0H22.8l-.14,0-.13,0-.14,0-.13,0-.13,0-.12,0-.12,0-.12-.06-.12-.06-.11-.07-.1-.08-.11-.08-.09-.09-.09-.09-.09-.1-.08-.1-.08-.1-.06-.11-.07-.11-.05-.12,0-.12-.05-.12,0-.13,0-.13,0-.13,0-.14,0-.14v-.43l0-.17,0-.17,0-.16.05-.15.06-.14.06-.14.08-.13,0-.07.05-.06,0,0,.05-.06.05,0,.05,0,0,0,.06,0,.05,0,.06,0,.06,0,.07,0,.06,0,.07,0,.06,0,.07,0,.07,0,.07,0,.1,0h.48l.08,0,.09,0,.09,0,.1,0,.1,0,.11,0,.1.06.1.07.05,0,.05,0,.05,0,0,0,.05.05,0,.06,0,.06,0,.06,0,.07,0,.07,0,.07,0,.08,0,.08,0,.09,0,.09v.09a.62.62,0,0,1,0,.13v.11l0,.11a.3.3,0,0,1,0,.1l0,.09,0,.09,0,.08,0,.07,0,.06-.06.06-.06,0-.06,0-.06,0-.07,0-.07,0-.07,0H22.7l-.06,0-.07,0-.06,0-.06,0-.05,0,0,0-.05-.06,0,0,0-.06v-.52l0,0v0l0,0,0,0,0,0,0,0,0,0,0,0,0,0h0l0,0,.07,0,.08,0h.41v0h0v0h0v-.06l0-.05,0,0,0,0,0,0-.06,0-.06-.05-.07,0-.08,0-.08,0-.09,0H22l-.07,0-.07,0-.08,0-.07,0-.07.05-.07.06-.07.06-.06.07-.06.08-.05.09-.05.09-.05.11,0,.11,0,.12a.68.68,0,0,0,0,.14s0,.09,0,.14v.44l0,.11v.1l0,.1,0,.1,0,.09,0,.09,0,.09.05.08.05.09.05.08.06.07.07.07.07.07.07.07.07.06.09,0,.08.06.09,0,.09,0,.09,0,.1,0,.09,0,.1,0,.1,0,.11,0h.66l.1,0,.11,0,.1,0,.1,0,.1,0,.1,0,.09,0,.09,0,.09,0,.08-.06.08-.06.08-.06.07-.07.07-.07.07-.07.06-.08.06-.08.06-.08.05-.09,0-.09,0-.09,0-.1,0-.09,0-.1,0-.1,0-.11,0-.1v-.67l0-.12v-.11l0-.11,0-.11,0-.12,0-.1,0-.11-.05-.11-.05-.1-.06-.1-.07-.1-.07-.09-.08-.09-.09-.09-.1-.08-.11-.08-.11-.07-.13-.07-.13-.06-.15-.06-.15-.05-.17,0-.18,0-.19,0-.2,0-.21,0H11.33v4.94H5.59v-4.94H.6v-5.7h5v-10.82c0-.08,0-.16,0-.24a1.62,1.62,0,0,0,0-.22c0-.07,0-.14,0-.21a1.5,1.5,0,0,1,0-.2l0-.19c0-.06,0-.12,0-.18l0-.16a.75.75,0,0,0-.05-.16l-.06-.14-.06-.14-.07-.12-.07-.11-.08-.11-.09-.1-.08-.09-.1-.08-.09-.07-.1-.06-.1-.06-.1-.06-.11,0-.11,0-.11,0-.11,0-.11,0-.12,0-.11,0h-.9l-.1,0-.11,0-.1,0-.09,0-.1,0-.09,0L2,1269l-.09,0-.08,0-.08.06-.08.06-.08.07-.07.07-.07.07-.06.08-.06.08-.06.08-.05.09-.05.09,0,.09,0,.09,0,.1,0,.1,0,.1,0,.11v.11l0,.1v.44l0,.11v.1l0,.1,0,.1,0,.1,0,.09,0,.09,0,.09.05.09.06.08.05.08.07.08.06.07.07.07.07.06.08.06.08.06.08,0,.09,0,.09,0,.09,0,.09,0,.1,0,.1,0h.11l.1,0H3l.14,0,.14,0,.12,0,.11,0,.11,0,.1,0,.09-.06.08-.06.07-.06.06-.07.06-.06,0-.07,0-.08,0-.07,0-.07,0-.08v-.48l0-.09,0-.08,0-.07-.05-.07,0-.06,0-.06,0,0,0,0-.05,0,0,0H3.71v0h0v0a.49.49,0,0,1,0,.12v.29l0,.07v0l0,0,0,0,0,0,0,0,0,0,0,0,0,0,0,0h0l0,0H2.82l-.06,0-.06,0-.05,0,0,0,0,0,0-.06,0-.06,0-.06,0-.07,0-.07v-.28l0-.07,0-.07,0-.07,0-.06,0-.06,0-.06.05,0,.07,0,.07-.05.08,0,.08,0,.1,0,.1,0h.54l.08,0,.09,0,.07,0,.08,0,.07,0,.07,0,.06,0,.06,0,.06,0,0,0,0,0,0,.05,0,0,0,0,.07.1.06.1,0,.1.05.11,0,.09,0,.1,0,.08v.29h0v.27l0,.09v.08l0,.06,0,.07,0,.07,0,.06,0,.07,0,.06,0,.06,0,.06,0,0,0,.06,0,0-.06,0-.05.05-.06,0,0,0-.06,0-.07,0-.13.07-.14.07-.15,0-.15,0-.16,0-.17,0H2.5l-.14,0-.13,0-.13,0-.13,0-.12,0-.13,0-.11-.06-.12-.06-.11-.07-.1-.07-.1-.08-.1-.09-.09-.09-.09-.09-.08-.1-.08-.11-.07-.11-.07-.11L.54,1272l-.05-.12,0-.12,0-.13,0-.13,0-.13,0-.14v-.84l0-.13,0-.14,0-.13,0-.13,0-.12.06-.13.06-.11.06-.12.07-.11.08-.11.08-.1L1,1269l.09-.1.09-.09.1-.08.1-.08.11-.08.11-.07.11-.07.12-.06.12,0,.12,0,.13,0,.13,0,.13,0,.14,0,.14,0h.67l.18,0,.18,0,.17,0,.17,0,.16,0,.15,0,.15.06.14.07.14.07.13.08.12.09.12.09.11.1.1.11.1.12.09.12.08.13.08.13.08.15.06.15.06.15.06.17,0,.17,0,.17,0,.19,0,.19a1.5,1.5,0,0,0,0,.2l0,.2a1.48,1.48,0,0,0,0,.21v11H10.7V1266.9l-.11,0-.11,0-.11,0-.1,0-.09-.06-.09-.07-.08-.08-.08-.08-.07-.09-.06-.09-.05-.1-.05-.11,0-.11,0-.11v-.53l0-.06,0-.11.05-.11.06-.1.06-.09.07-.09.08-.08.08-.08.09-.07.1-.06.1,0,.11-.05.11,0,.06,0h.06V15.92h.6V1264.34l.1,0,.1,0,.09,0,.09.06.09.06.08.07.07.07.07.09.06.08.05.09,0,.1,0,.09,0,.11,0,.1v.44l0,.11,0,.1,0,.1,0,.09-.06.09-.06.09-.07.08-.07.07-.08.07-.08.07-.09,0-.1,0-.09,0-.11,0v15.61H27.1l0-.1.05-.1.05-.09.05-.09.07-.08.06-.08.08-.07.08-.07.09-.06.09,0,.09,0,.1,0,.11,0,.1,0h.45l.11,0,.11,0,.1,0,.1,0,.1.06.08.06.09.07.07.08.07.08.07.09.05.1.05.09,0,.11,0,.1h4.75v.6Zm-24.09,0H1.23v4.44H5.59Zm.63,9.38H10.7v-4.31H6.22Zm4.48-9.38H6.22v4.44H10.7ZM11,1266.3h.07l.07,0,.06,0,.06,0,.06,0,.06,0,.05,0,0,0,0-.06,0,0,0-.06,0-.07,0-.07v-.28l0-.06,0-.07,0-.06,0-.06,0,0,0-.05-.05,0-.06,0-.06,0-.06,0-.06,0-.07,0h-.29l-.06,0-.07,0-.06,0-.06,0-.05,0,0,0-.05.05,0,0,0,.06,0,.06,0,.07v.41l0,.07,0,.06,0,0,0,.06.05,0,0,0,.05,0,.06,0,.06,0,.07,0,.06,0H11Zm18,16.48v-.06l0-.07,0-.06,0-.07,0,0,0-.06-.05-.05-.05,0-.05,0-.06,0-.06,0-.07,0-.06,0h-.29l-.07,0-.06,0-.06,0-.06,0-.05,0-.05,0-.05.05,0,.06,0,0,0,.07,0,.06,0,.07v.28l0,.06,0,.07,0,.06,0,.06,0,0,.05,0,.05.05.05,0,.06,0,.06,0,.06,0,.07,0h.29l.06,0,.07,0,.06,0,.06,0,.05,0,.05-.05.05,0,0,0,0-.06,0-.06,0-.07,0-.06v-.22Z"/><path class="cls-1" d="M31.12,1283.14v-.6H1969.44l0-.1,0-.11,0-.09.06-.1.06-.09.07-.08.08-.08.08-.07.09-.06.09-.06.1,0,.1,0,.11,0,.11,0h.45l.11,0,.1,0,.1,0,.09,0,.1,0,.08.06.08.07.08.07.07.08.06.08.06.09,0,.09,0,.1,0,.1h15.77v-15.61l-.1,0-.1,0-.1,0-.08,0-.09-.07-.08-.07-.07-.07-.07-.08-.06-.09,0-.09,0-.09,0-.1,0-.1,0-.11,0-.1v-.23l0-.11,0-.1,0-.11,0-.09,0-.1,0-.09.06-.08.07-.09.07-.07.08-.07.09-.06.09-.06.09,0,.1,0,.1,0v-4.54h.6v4.5h.06l.06,0,.11,0,.11.05.1,0,.1.06.09.07.09.08.07.08.07.09.07.09,0,.1.05.11,0,.11,0,.06v.53l0,.11,0,.11,0,.11-.06.1-.06.09-.07.09-.07.08-.09.08-.09.07-.09.06-.1,0-.11,0-.11,0-.11,0v15.58h4.48v-11a1.48,1.48,0,0,1,0-.21v-.2a1.5,1.5,0,0,0,0-.2l0-.19,0-.19,0-.17,0-.17.05-.17.06-.15.07-.15.07-.15.08-.13.08-.13.1-.12.09-.12.11-.11.11-.1.11-.09.13-.09.13-.08.13-.07.14-.07.15-.06.15,0,.16,0,.17,0,.17,0,.18,0,.19,0h.67l.13,0,.14,0,.13,0,.13,0,.13,0,.12,0,.12,0,.12.06.11.07.11.07.11.08.1.08.1.08.09.09.09.1.09.1.08.1.07.11.07.11.07.12.06.11,0,.13.05.12,0,.13,0,.13,0,.14,0,.13,0,.14v.57l0,.13,0,.14,0,.13,0,.13,0,.13-.05.12,0,.12-.06.12-.07.11-.07.11-.07.11-.09.1-.08.09-.1.09-.09.09-.1.08-.11.07-.11.07-.11.06-.12.06-.12,0-.13,0-.13,0-.13,0-.13,0-.14,0h-.75l-.17,0-.16,0-.15,0-.15,0-.14-.07-.13-.07-.06,0-.06,0-.06,0-.06,0,0-.05-.05,0,0,0,0-.06,0,0,0-.06,0-.06,0-.06,0-.07,0-.06,0-.07,0-.07,0-.06,0-.08,0-.09v-.27h0v-.29l0-.08,0-.1,0-.09,0-.11.05-.1.06-.1.07-.1,0,0,0,0,0-.05,0,0,.06,0,0,0,.06,0,.07,0,.06,0,.07,0,.08,0,.08,0,.08,0,.09,0h.53l.11,0,.09,0,.09,0,.07,0,.07.05.07,0,0,0,0,.06,0,.06,0,.06,0,.07,0,.07,0,.07v.35l0,.07,0,.06,0,.06,0,.06,0,0,0,0,0,0-.06,0-.06,0h-.52l0,0h0l0,0,0,0,0,0,0,0,0,0,0,0,0,0,0,0v0l0-.07,0-.08v-.35h0v0h-.14l0,0,0,0-.05,0,0,0,0,.06,0,.06,0,.07,0,.07,0,.08,0,.09v.48l0,.08,0,.07,0,.07,0,.08,0,.07.06.06.06.07.08.06.08.06.09.06.09,0,.11,0,.11,0,.13,0,.13,0,.14,0h.45l.11,0h.1l.1,0,.1,0,.09,0,.1,0,.08,0,.09,0,.08,0,.08-.06.08-.06.07-.06.07-.07.07-.07.06-.08,0-.08.06-.08,0-.09,0-.09,0-.09,0-.09,0-.1,0-.1,0-.1,0-.1v-.65l0-.11,0-.11,0-.1,0-.1,0-.1,0-.09,0-.09,0-.09-.06-.09,0-.08-.07-.08-.06-.08-.07-.07-.07-.07-.07-.07-.08-.06-.08-.06-.09,0-.09,0-.09,0-.09,0-.09,0-.1,0-.1,0-.1,0-.11,0h-.9l-.11,0-.12,0-.11,0-.11,0-.11,0-.11,0-.1,0-.11.06-.1.06-.1.06-.09.07-.09.08-.09.09-.08.1-.08.11-.08.11-.07.12-.06.14-.06.14c0,.05,0,.1,0,.16l0,.16c0,.06,0,.12,0,.18l0,.19,0,.2c0,.07,0,.14,0,.21s0,.15,0,.22v11.06h5v5.7h-5v4.94h-5.75v-4.94h-11.39l-.22,0-.2,0-.19,0-.18,0-.16,0-.16.05-.15.06-.13.06-.13.07-.11.07-.11.08-.1.08-.09.09-.08.09-.07.09-.07.1-.06.1,0,.1-.05.11,0,.11,0,.1,0,.12,0,.11,0,.11v.11l0,.12v.77l0,.11,0,.1,0,.1,0,.09,0,.1,0,.09.05.09,0,.09,0,.08.06.08.06.08.07.07.07.07.07.07.08.06.08.06.09.06.08,0,.09,0,.09,0,.1,0,.1,0,.1,0,.1,0,.11,0,.11,0h.65l.11,0,.1,0,.1,0,.1,0,.09,0,.1,0,.09,0,.08,0,.09-.06.08,0,.07-.06.08-.07.07-.07.06-.07.06-.07.06-.08,0-.09,0-.08,0-.09,0-.09,0-.09,0-.1,0-.1,0-.1v-.55s0-.1,0-.14a.68.68,0,0,1,0-.14.53.53,0,0,1,0-.12.49.49,0,0,1,0-.11l0-.11,0-.09-.06-.09-.06-.08-.06-.07-.07-.06-.07-.06-.07-.05-.07,0-.07,0-.08,0-.07,0h-.49l-.09,0-.08,0-.07,0-.07,0-.07.05,0,0,0,0,0,0,0,0,0,.05v.06h0v0h0v0h.41l.08,0,.07,0,0,0h0l0,0,0,0,0,0,0,0,0,0,0,0,0,0,0,0v0l0,0v.27l0,.07v.07l0,0v0l0,.06,0,0,0,.06,0,0-.06,0-.06,0-.06,0-.06,0-.07,0h-.35l-.08,0-.06,0-.07,0-.07,0-.06,0-.06,0-.05-.06,0-.06,0-.07,0-.08,0-.09,0-.09s0-.06,0-.1v-.11s0-.07,0-.11,0-.08,0-.13V1290l0-.09,0-.08,0-.08,0-.07,0-.07,0-.07,0-.06,0-.06,0-.06,0-.05,0,0,0,0,0,0,.05,0,.1-.07.11-.06.1,0,.1,0,.1,0,.1,0,.08,0,.08,0h.49l.09,0,.07,0,.07,0,.07,0,.07,0,.06,0,.07,0,.06,0,.06,0,.06,0,.05,0,.06,0,0,0,.06,0,0,0,.05.06,0,0,0,.06,0,.07.08.13.06.14.06.14,0,.15,0,.16,0,.17,0,.17v.57l0,.14,0,.13,0,.13,0,.13,0,.12,0,.12-.06.12-.06.11-.07.11-.08.1-.08.1-.08.1-.1.09-.09.09-.1.08-.11.08-.11.07-.12.06-.11.06-.13,0-.12,0-.13,0-.13,0-.13,0-.14,0-.14,0h-.57l-.14,0-.13,0-.14,0-.13,0-.13,0-.13,0-.12,0-.12-.06-.12-.06-.11-.07-.11-.08-.1-.08-.1-.08-.1-.09-.09-.09-.09-.1-.08-.1-.08-.11-.07-.11-.07-.11-.06-.11,0-.12,0-.13,0-.12,0-.13,0-.13,0-.14,0-.13v-.28a1.34,1.34,0,0,0,0-.2v-.18l0-.19,0-.17,0-.18,0-.16,0-.16,0-.15.06-.15.07-.14.07-.13.08-.13.09-.12.1-.12.1-.11.11-.1.11-.1.13-.09.13-.08.14-.08.14-.07.15-.07.16-.06.16,0,.18,0,.17,0,.19,0,.19,0,.2,0,.21,0h11.36v-4.44h-15.73l0,.11,0,.11,0,.1,0,.1-.07.1-.07.09-.07.08-.09.07-.09.07-.09.06-.1,0-.11,0-.11,0-.11,0h-.36l-.12,0-.11,0-.11,0-.1,0-.1,0-.1-.06-.09-.07-.08-.07-.08-.08-.07-.09-.06-.09,0-.09,0-.11,0-.1,0-.11Zm1962.41,4.41h4.35v-4.44h-4.35Zm-.64.63h-4.48v4.31h4.48Zm-4.48-.63h4.48v-4.44h-4.48Zm-.25-21.25h.14l.07,0,.06,0,.06,0,.06,0,0,0,.05,0,0,0,0-.06,0,0,0-.06,0-.07,0-.07v-.28l0-.06,0-.07,0-.06,0-.06,0,0,0-.05-.05,0,0,0-.06,0-.06,0-.06,0-.07,0H1988l-.06,0-.07,0-.06,0-.06,0,0,0,0,0-.05.05,0,0,0,.06,0,.06,0,.07,0,.06v.28l0,.07,0,.07,0,.06,0,0,0,.06.05,0,0,0,0,0,.06,0,.06,0,.07,0,.06,0h.15ZM1970,1282.86v.2l0,.07,0,.06,0,.06,0,0,0,0,0,.05,0,0,.06,0,.06,0,.07,0,.07,0h.28l.07,0,.06,0,.06,0,.06,0,.06,0,0-.05,0,0,0,0,0-.06,0-.06,0-.07,0-.06v-.28l0-.07,0-.06,0-.07,0,0,0-.06,0-.05,0,0-.06,0-.06,0-.06,0-.06,0-.07,0h-.28l-.07,0-.07,0-.06,0-.06,0,0,0,0,0,0,.05,0,.06,0,0,0,.07,0,.06v.21Z"/></svg>