<svg id="Layer_1" data-name="Layer 1" xmlns="http://www.w3.org/2000/svg" viewBox="0 0 104.95 76.91"><defs><style>.cls-1{fill:#e83763;stroke:#e83763;stroke-miterlimit:10;stroke-width:2.19px;}</style></defs><title>Untitled-1</title><g id="p9AL6k"><path class="cls-1" d="M103.85,67.55a11,11,0,0,1-2.17,4.87,9.29,9.29,0,0,1-6.3,3.32,13,13,0,0,1-1.4.06H11a9.5,9.5,0,0,1-8-3.76,9.29,9.29,0,0,1-1.88-5.81q0-27.78,0-55.58C1.13,5,5.2,1.11,10.91,1.11q20.67,0,41.33,0,20.88,0,41.74,0c3.33,0,6.15,1.12,8,3.89a23.29,23.29,0,0,1,1.84,4.37ZM96.05,6.32,95.88,6a13.61,13.61,0,0,0-1.66-.19H10.76A13.85,13.85,0,0,0,9.06,6l-.18.36a6.94,6.94,0,0,1,1,.7Q29.32,26.44,48.75,45.88c2.55,2.56,4.92,2.56,7.46,0Q75.68,26.43,95.16,7A5.81,5.81,0,0,1,96.05,6.32Zm-.23,64.57-29-29-.65.6c-2.32,2.32-4.63,4.65-6.95,7a9.15,9.15,0,0,1-13.49,0c-2.34-2.29-4.64-4.63-7-6.94-.25-.25-.52-.5-.62-.59L9.23,70.89C10.27,71.27,94.48,71.3,95.82,70.89ZM34.12,38.51,5.82,10V67Zm36.72-.09,28.3,28.52V9.9Z"/></g></svg>