<?xml version="1.0" encoding="UTF-8"?>
<svg id="Layer_1" data-name="Layer 1" xmlns="http://www.w3.org/2000/svg" viewBox="0 0 621.84 23.5">
  <defs>
    <style>
      .cls-1 {
        fill: none;
      }

      .cls-1, .cls-2 {
        stroke-width: 0px;
      }

      .cls-2 {
        fill: #ede7de;
      }
    </style>
  </defs>
  <path class="cls-1" d="m610.44,7.71c1.85,0,3.35,1.47,3.36,3.3,0,1.83-1.49,3.31-3.34,3.31-1.85,0-3.36-1.47-3.36-3.3,0-1.83,1.49-3.31,3.34-3.31Z"/>
  <path class="cls-1" d="m0,12.18v11.32s621.84,0,621.84,0V0S0,0,0,0v11.04s552.22,0,552.22,0c.38-1.12,1.47-1.93,2.77-1.94,1.3,0,2.39.81,2.78,1.92l23.03-.06c.66-.22,1.34-.49,2-.85,3.16-1.74,4.65-2.43,9.08-2.73,4.43-.3,6.37-5.2,6.37-5.2,0,0,1.62,3.28-.91,5.24-1.42,1.1-2.05,2.29-2.34,3.12-.46-1.17-1.85-2.03-3.52-2.02-2.03,0-3.68,1.29-3.68,2.87,0,1.58,1.66,2.85,3.69,2.85,1.55,0,2.87-.75,3.41-1.81.24.83.85,2.18,2.45,3.4,2.54,1.95.93,5.23.93,5.23,0,0-1.97-4.89-6.4-5.16-4.43-.27-5.93-.96-9.1-2.68-1-.54-2.05-.9-3.01-1.13l-21.89.06c-.13,1.43-1.37,2.56-2.91,2.57-1.53,0-2.78-1.12-2.92-2.55H0Zm604.37-1c0-2.66,2.22-4.83,4.98-4.84,2.75,0,4.99,2.15,5,4.81,0,2.67-2.22,4.83-4.98,4.84-2.75,0-4.99-2.15-5-4.82Z"/>
  <path class="cls-2" d="m555,9.09c1.3,0,2.39.81,2.78,1.92l23.03-.06c.66-.22,1.34-.49,2-.85,3.16-1.74,4.65-2.43,9.08-2.73,4.43-.3,6.37-5.2,6.37-5.2,0,0,1.62,3.28-.91,5.24-1.42,1.1-2.05,2.29-2.34,3.12-.46-1.17-1.85-2.03-3.52-2.02-2.03,0-3.68,1.29-3.68,2.87,0,1.58,1.66,2.85,3.69,2.85,1.55,0,2.87-.75,3.41-1.81.24.83.85,2.18,2.45,3.4,2.54,1.95.93,5.23.93,5.23,0,0-1.97-4.89-6.4-5.16-4.43-.27-5.93-.96-9.1-2.68-1-.54-2.05-.9-3.01-1.13l-21.89.06c-.13,1.43-1.37,2.56-2.91,2.57-1.53,0-2.78-1.12-2.92-2.55H0s0-1.13,0-1.13h552.22c.38-1.13,1.47-1.94,2.77-1.95Z"/>
  <path class="cls-2" d="m604.37,11.18c0,2.67,2.25,4.82,5,4.82,2.75,0,4.98-2.17,4.98-4.84,0-2.67-2.25-4.82-5-4.81-2.75,0-4.98,2.18-4.98,4.84Zm2.72-.15c0-1.83,1.49-3.31,3.34-3.31,1.85,0,3.35,1.47,3.36,3.3,0,1.83-1.49,3.31-3.34,3.31-1.85,0-3.36-1.47-3.36-3.3Z"/>
</svg>