<?xml version="1.0" encoding="UTF-8"?>
<svg id="Layer_1" data-name="Layer 1" xmlns="http://www.w3.org/2000/svg" viewBox="0 0 76.19 23.5">
  <defs>
    <style>
      .cls-1 {
        fill: none;
      }

      .cls-1, .cls-2 {
        stroke-width: 0px;
      }

      .cls-2 {
        fill: #ede7de;
      }
    </style>
  </defs>
  <path class="cls-1" d="m11.41,7.71c-1.85,0-3.35,1.47-3.36,3.3,0,1.83,1.49,3.31,3.34,3.31,1.85,0,3.36-1.47,3.36-3.3,0-1.83-1.49-3.31-3.34-3.31Z"/>
  <path class="cls-1" d="m69.75,12.17c-.14,1.43-1.39,2.55-2.92,2.55-1.53,0-2.77-1.13-2.91-2.57l-21.89-.06c-.96.23-2.01.58-3.01,1.13-3.17,1.72-4.67,2.4-9.1,2.68-4.43.28-6.4,5.16-6.4,5.16,0,0-1.6-3.28.93-5.23,1.6-1.23,2.22-2.58,2.45-3.4.54,1.06,1.86,1.81,3.41,1.81,2.03,0,3.69-1.27,3.69-2.85,0-1.58-1.64-2.86-3.68-2.87-1.66,0-3.05.85-3.52,2.02-.29-.83-.93-2.02-2.34-3.12-2.53-1.96-.91-5.24-.91-5.24,0,0,1.94,4.9,6.37,5.2,4.43.3,5.93.99,9.08,2.73.66.36,1.34.63,2,.85l23.03.06c.39-1.12,1.48-1.93,2.78-1.92,1.3,0,2.39.82,2.77,1.94h6.57s0-11.03,0-11.03H0v23.5h76.19v-11.32h-6.44Zm-57.28,3.83c-2.75,0-4.98-2.17-4.98-4.84,0-2.67,2.25-4.82,5-4.81,2.75,0,4.98,2.18,4.98,4.84,0,2.67-2.25,4.82-5,4.82Z"/>
  <path class="cls-2" d="m66.85,9.09c-1.3,0-2.39.81-2.78,1.92l-23.03-.06c-.66-.22-1.34-.49-2-.85-3.16-1.74-4.65-2.43-9.08-2.73-4.43-.3-6.37-5.2-6.37-5.2,0,0-1.62,3.28.91,5.24,1.42,1.1,2.05,2.29,2.34,3.12.46-1.17,1.85-2.03,3.52-2.02,2.03,0,3.68,1.29,3.68,2.87,0,1.58-1.66,2.85-3.69,2.85-1.55,0-2.87-.75-3.41-1.81-.24.83-.85,2.18-2.45,3.4-2.54,1.95-.93,5.23-.93,5.23,0,0,1.97-4.89,6.4-5.16,4.43-.27,5.93-.96,9.1-2.68,1-.54,2.05-.9,3.01-1.13l21.89.06c.13,1.43,1.37,2.56,2.91,2.57,1.53,0,2.78-1.12,2.92-2.55h6.44s0-1.13,0-1.13h-6.57c-.38-1.13-1.47-1.94-2.77-1.95Z"/>
  <path class="cls-2" d="m12.5,6.34c-2.75,0-4.99,2.15-5,4.81,0,2.67,2.22,4.83,4.98,4.84,2.75,0,4.99-2.15,5-4.82,0-2.66-2.22-4.83-4.98-4.84Zm-1.11,7.98c-1.85,0-3.35-1.49-3.34-3.31,0-1.83,1.51-3.3,3.36-3.3,1.85,0,3.35,1.49,3.34,3.31,0,1.83-1.51,3.3-3.36,3.3Z"/>
</svg>