<?xml version="1.0" encoding="UTF-8"?>
<svg id="Layer_1" data-name="Layer 1" xmlns="http://www.w3.org/2000/svg" viewBox="0 0 159.82 159.48">
  <defs>
    <style>
      .cls-1 {
        fill: #26344a;
        stroke-width: 0px;
      }
    </style>
  </defs>
  <g id="FEqdXX">
    <g>
      <path class="cls-1" d="m156.24,79.01c-.06,41.86-34.2,75.76-76.25,75.7-41.9-.06-75.86-34.23-75.73-76.19C4.4,36.59,38.5,2.71,80.48,2.81c41.88.1,75.81,34.23,75.76,76.21Zm-12.93-.5c-.05-34.56-28.42-62.79-63.09-62.77-34.93.01-63.06,28.26-63.03,63.3.02,34.59,28.35,62.77,63.06,62.73,34.97-.04,63.12-28.28,63.06-63.26Z"/>
      <path class="cls-1" d="m72.06,78.86c0,6.16.07,12.32-.02,18.48-.08,5.32-3.12,8.93-7.36,9.02-4.54.1-7.49-3.42-7.51-9.2-.04-12.32-.04-24.65,0-36.97.02-5.63,2.7-8.88,7.17-8.94,4.67-.06,7.63,3.35,7.71,9.11.09,6.16.02,12.32.02,18.48Z"/>
      <path class="cls-1" d="m103.36,78.73c0,6.33.05,12.66-.02,18.98-.06,5.17-2.79,8.41-7.07,8.61-4.33.21-7.76-3.34-7.81-8.51-.1-12.66-.11-25.31,0-37.97.04-5.31,3.23-8.65,7.72-8.58,4.29.07,7.08,3.28,7.15,8.48.08,6.33.02,12.66.02,18.98Z"/>
    </g>
  </g>
</svg>