<?xml version="1.0" encoding="UTF-8"?>
<svg id="Layer_1" data-name="Layer 1" xmlns="http://www.w3.org/2000/svg" viewBox="0 0 162.84 161.12">
  <defs>
    <style>
      .cls-1 {
        fill: #26344a;
        stroke-width: 0px;
      }
    </style>
  </defs>
  <g id="_8ER208" data-name="8ER208">
    <g>
      <path class="cls-1" d="m6.97,82.03C6.91,40.38,40.93,6.28,82.58,6.26c41.99-.03,76.33,33.73,76.36,75.04.02,42.79-33.7,76.83-76.12,76.85-41.84.01-75.78-34.05-75.84-76.12Zm12.93-.09c-.04,34.95,28.21,63.3,63.07,63.3,34.62,0,62.99-28.29,63.03-62.87.04-34.75-28.01-63.09-62.6-63.21-35.09-.13-63.46,27.92-63.5,62.77Z"/>
      <path class="cls-1" d="m63.87,81.9c0-7.65-.07-15.31.02-22.96.06-4.63,1.54-5.58,5.45-3.35,13.58,7.74,27.11,15.56,40.6,23.46,3.57,2.09,3.58,4.12.04,6.19-13.5,7.88-27.04,15.68-40.62,23.41-3.94,2.24-5.4,1.32-5.45-3.29-.09-7.82-.02-15.64-.03-23.46Z"/>
    </g>
  </g>
</svg>