<svg viewBox="0 0 842.46 606.05" xmlns="http://www.w3.org/2000/svg" xmlns:xlink="http://www.w3.org/1999/xlink"><filter id="a" filterUnits="userSpaceOnUse"><feOffset dx="8.75" dy="8.75"/><feGaussianBlur result="blur" stdDeviation="17.51"/><feFlood flood-color="#38281b" flood-opacity=".56"/><feComposite in2="blur" operator="in"/><feComposite in="SourceGraphic"/></filter><path d="m59.76 120.85h718.46v421.17h-718.46z" fill="#db3a57" filter="url(#a)" stroke="#db3a57" stroke-miterlimit="10" stroke-width="1.03"/><path d="m90.85 4.37c.31.62.12 1.03.1 1.44-.68 15.05-1.36 30.1-2.08 45.14-.04.81.18.88.89.74 3.88-.78 7.76-1.52 11.81-2.3-7.07 20.1-14.1 40.09-21.13 60.08-.1-.02-.21-.03-.31-.05.79-15.7 1.58-31.4 2.37-47.18-4.19.81-8.31 1.59-12.61 2.42 6.99-20.11 13.94-40.11 20.95-60.29z" fill="#db3a57"/><path d="m0 62.15c.68.16.87.58 1.16.85 11.05 10.24 22.1 20.48 33.13 30.74.6.55.79.43 1.14-.2 1.91-3.46 3.85-6.9 5.87-10.5 10.78 18.38 21.5 36.65 32.23 54.93-.08.07-.16.14-.24.2-11.48-10.74-22.96-21.48-34.49-32.27-2.09 3.72-4.15 7.37-6.29 11.19-10.85-18.33-21.63-36.55-32.51-54.94z" fill="#fff"/><g fill="none" stroke-miterlimit="10" stroke-width="1.15"><path d="m3.23 61.79c.68.16.87.58 1.16.85 11.05 10.24 22.1 20.48 33.13 30.74.6.55.79.43 1.14-.2 1.91-3.46 3.85-6.9 5.87-10.5 10.78 18.38 21.5 36.65 32.23 54.93-.08.07-.16.14-.24.2-11.48-10.74-22.96-21.48-34.49-32.27-2.09 3.72-4.15 7.37-6.29 11.19-10.85-18.33-21.63-36.55-32.51-54.94z" stroke="#db3a57"/><path d="m87.9 1.47c.31.62.12 1.03.1 1.44-.68 15.05-1.36 30.1-2.08 45.14-.04.81.18.88.89.74 3.88-.78 7.76-1.52 11.81-2.3-7.07 20.1-14.1 40.09-21.13 60.08-.1-.02-.21-.03-.31-.05.79-15.7 1.58-31.4 2.37-47.18-4.19.81-8.31 1.59-12.61 2.42 6.99-20.11 13.94-40.11 20.95-60.29z" stroke="#142b3d"/></g></svg>