<svg id="Layer_1" data-name="Layer 1" xmlns="http://www.w3.org/2000/svg" viewBox="0 0 23.5 1005.36"><defs><style>.cls-1{fill:none;}.cls-2{fill:#efe9df;}</style></defs><title>piezas</title><path class="cls-1" d="M15.79,11.41a3.31,3.31,0,1,0-3.32,3.34A3.33,3.33,0,0,0,15.79,11.41Z"/><path class="cls-1" d="M11.33,69.75a2.93,2.93,0,0,1,0-5.82L11.41,42a12.11,12.11,0,0,0-1.13-3,17.62,17.62,0,0,1-2.68-9.1c-.27-4.44-5.16-6.4-5.16-6.4s3.29-1.61,5.24.93a6.54,6.54,0,0,0,3.4,2.45,3.78,3.78,0,0,0-1.81,3.42c0,2,1.27,3.68,2.85,3.69S15,32.38,15,30.34a3.66,3.66,0,0,0-2-3.51,6.77,6.77,0,0,0,3.12-2.35c2-2.52,5.24-.9,5.24-.9S16.43,25.52,16.13,30A17.57,17.57,0,0,1,13.4,39a11.11,11.11,0,0,0-.85,2l-.06,23a3,3,0,0,1,0,5.55v6.57h11V0H0V76.19H11.32ZM7.51,12.47a4.91,4.91,0,0,1,4.84-5,4.92,4.92,0,0,1,4.81,5,4.9,4.9,0,0,1-4.84,5A4.91,4.91,0,0,1,7.51,12.47Z"/><path class="cls-2" d="M14.41,66.85a2.93,2.93,0,0,0-1.92-2.78l.06-23a11.11,11.11,0,0,1,.85-2A17.57,17.57,0,0,0,16.13,30c.3-4.43,5.19-6.37,5.19-6.37s-3.27-1.62-5.24.9A6.77,6.77,0,0,1,13,26.83a3.66,3.66,0,0,1,2,3.51c0,2-1.29,3.68-2.87,3.68s-2.86-1.66-2.85-3.69a3.78,3.78,0,0,1,1.81-3.42,6.54,6.54,0,0,1-3.4-2.45c-1.95-2.54-5.24-.93-5.24-.93s4.89,2,5.16,6.4A17.62,17.62,0,0,0,10.28,39a12.11,12.11,0,0,1,1.13,3l-.06,21.89a2.93,2.93,0,0,0,0,5.82v6.44h1.14V69.62A2.91,2.91,0,0,0,14.41,66.85Z"/><path class="cls-2" d="M17.16,12.5a4.92,4.92,0,0,0-4.81-5,4.91,4.91,0,0,0-4.84,5,4.91,4.91,0,0,0,4.81,5A4.9,4.9,0,0,0,17.16,12.5Zm-8-1.11a3.31,3.31,0,1,1,3.29,3.36A3.32,3.32,0,0,1,9.18,11.39Z"/><path class="cls-1" d="M15.79,994a3.31,3.31,0,1,1-3.32-3.34A3.33,3.33,0,0,1,15.79,994Z"/><path class="cls-1" d="M11.32,45H0v960.4H23.5V45h-11V935.74a3,3,0,0,1,0,5.55l.06,23a11.11,11.11,0,0,0,.85,2,17.57,17.57,0,0,1,2.73,9.09c.3,4.43,5.19,6.37,5.19,6.37s-3.27,1.62-5.24-.9A6.77,6.77,0,0,0,13,978.53,3.66,3.66,0,0,0,15,975c0-2-1.29-3.68-2.87-3.68S9.26,973,9.27,975a3.78,3.78,0,0,0,1.81,3.42,6.54,6.54,0,0,0-3.4,2.45c-1.95,2.53-5.24.93-5.24.93s4.89-2,5.16-6.4a17.62,17.62,0,0,1,2.68-9.1,12.11,12.11,0,0,0,1.13-3l-.06-21.89a2.93,2.93,0,0,1,0-5.82Zm1,942.93a5,5,0,0,1,0,10,5,5,0,0,1,0-10Z"/><path class="cls-2" d="M14.41,938.51a2.93,2.93,0,0,1-1.92,2.78l.06,23a11.11,11.11,0,0,0,.85,2,17.57,17.57,0,0,1,2.73,9.09c.3,4.43,5.19,6.37,5.19,6.37s-3.27,1.62-5.24-.9A6.77,6.77,0,0,0,13,978.53,3.66,3.66,0,0,0,15,975c0-2-1.29-3.68-2.87-3.68S9.26,973,9.27,975a3.78,3.78,0,0,0,1.81,3.42,6.54,6.54,0,0,0-3.4,2.45c-1.95,2.53-5.24.93-5.24.93s4.89-2,5.16-6.4a17.62,17.62,0,0,1,2.68-9.1,12.11,12.11,0,0,0,1.13-3l-.06-21.89a2.93,2.93,0,0,1,0-5.82V72.92h1.14V935.74A2.91,2.91,0,0,1,14.41,938.51Z"/><path class="cls-2" d="M12.32,987.89a5,5,0,0,0,0,10,5,5,0,0,0,0-10Zm.15,2.72A3.35,3.35,0,1,1,9.18,994,3.33,3.33,0,0,1,12.47,990.61Z"/></svg>