<?xml version="1.0" encoding="UTF-8"?>
<svg version="1.1" xmlns="http://www.w3.org/2000/svg" width="198" height="240">
<path d="M0 0 C7.59 0 15.18 0 23 0 C23 79.2 23 158.4 23 240 C15.41 240 7.82 240 0 240 C0 160.8 0 81.6 0 0 Z " fill="#E83563" transform="translate(43,0)"/>
<path d="M0 0 C7.59 0 15.18 0 23 0 C23 52.14 23 104.28 23 158 C15.41 158 7.82 158 0 158 C0 105.86 0 53.72 0 0 Z " fill="#E83563" transform="translate(131,50)"/>
<path d="M0 0 C7.59 0 15.18 0 23 0 C23 34.98 23 69.96 23 106 C15.41 106 7.82 106 0 106 C0 71.02 0 36.04 0 0 Z " fill="#E83563" transform="translate(87,77)"/>
<path d="M0 0 C7.59 0 15.18 0 23 0 C23 16.83 23 33.66 23 51 C15.41 51 7.82 51 0 51 C0 34.17 0 17.34 0 0 Z " fill="#E83563" transform="translate(175,103)"/>
<path d="M0 0 C7.26 0 14.52 0 22 0 C22 16.17 22 32.34 22 49 C14.74 49 7.48 49 0 49 C0 32.83 0 16.66 0 0 Z " fill="#E83563" transform="translate(0,104)"/>
</svg>
