<svg id="Layer_1" data-name="Layer 1" xmlns="http://www.w3.org/2000/svg" viewBox="0 0 78.02 27.97"><defs><style>.cls-1{fill:#223957;}</style></defs><title>Untitled-1</title><path class="cls-1" d="M37.9,8.58h0a.34.34,0,0,1,.41-.23.32.32,0,0,1,.21.4c-1,3.09-4.5,11.45-13.64,14.37-.06,0-8,3.75-22.72-1.57-.65-.24-1.32-.49-2-.76L0,20.6v-.26l.18-.18H.43c.66.27,1.32.52,2,.75,14.38,5.2,22.2,1.62,22.28,1.58,8.81-2.81,12.24-10.89,13.23-13.9"/><path class="cls-1" d="M60,9.61A125.36,125.36,0,0,1,44.6,20.45c-12,6.94-22.68,5.29-22.79,5.28l-.2-.14-.06-.25a.35.35,0,0,1,.38-.28c.11,0,10.56,1.63,22.37-5.19A124.29,124.29,0,0,0,59.64,9.08c3.77-3,6.74-5.33,9.38-6.39,3.68-1.47,6.53-.28,7.87,1.19a4.19,4.19,0,0,1,.74,4.62,4.05,4.05,0,0,1-4.1,2.35A3,3,0,0,1,71,8.8a2.59,2.59,0,0,1,.51-2.55,2.05,2.05,0,0,1,2.06-.61,1.64,1.64,0,0,1,1.21,1l0,.25-.2.16-.25,0-.15-.2a1.23,1.23,0,0,0-.76-.5,1.4,1.4,0,0,0-1.42.43,1.87,1.87,0,0,0-.35,1.86,2.36,2.36,0,0,0,2,1.6,3.34,3.34,0,0,0,3.42-1.94,3.48,3.48,0,0,0-.64-3.89c-1.2-1.32-3.8-2.38-7.17-1-2.55,1-5.49,3.34-9.21,6.29"/><path class="cls-1" d="M29.22,22.46a35.83,35.83,0,0,0,11.16-5.59,38.7,38.7,0,0,0,4.35-4.35A38.68,38.68,0,0,0,50.54,2c.71-2,1.63-2.34,2.38-1.63s.24,3.52-2.41,7.46A37.08,37.08,0,0,1,41.34,17a36.86,36.86,0,0,1-12,6.15l-.25,0L29,22.86l.05-.25Z"/><path class="cls-1" d="M27.93,27.7a.32.32,0,0,1-.24-.4.34.34,0,0,1,.39-.26s3.13.63,9.48-.09c2.33-.4,5.31-1,8.12-1.68,5.79-1.46,11.39-3,15.71-2.82s5.46,2,5,3-2.57.43-4.09,0a28.76,28.76,0,0,0-11.05-.18c-1.72.29-3.71.67-5.83,1C33.67,28.85,28,27.71,27.93,27.7"/><path class="cls-1" d="M12.63,18.41a11.76,11.76,0,0,1-5.25,1.84,12,12,0,0,1-5-.15l-.19-.16,0-.26a.32.32,0,0,1,.41-.22,11.31,11.31,0,0,0,3.56.29,10.56,10.56,0,0,0,5-2.85s1.75-1.87,2.77-1.64.71,1.78-1.22,3.15"/><path class="cls-1" d="M28.41,12.64s1.06.25.26,2-3.77,3.88-6.36,5.21a15.24,15.24,0,0,1-3.2,1.17,18.19,18.19,0,0,1-6.66,1.05.31.31,0,0,1-.28-.36l.11-.23.24-.08a17.31,17.31,0,0,0,6.14-.93,17.53,17.53,0,0,0,4-2.36c3.4-2.7,4-5.92,5.78-5.52"/></svg>